<?xml version="1.0" encoding="UTF-8"?> <svg xmlns="http://www.w3.org/2000/svg" width="68" height="68" viewBox="0 0 68 68" fill="none"><path d="M55.4698 44.18L50.0298 41.03L54.5198 38.44L50.8398 36.31L46.2798 38.87L37.8398 34L46.1698 29.19L50.7298 31.75L54.4198 29.62L49.9198 27.03L55.3598 23.88L53.4798 20.62L48.0398 23.76V18.57L44.3498 20.7L44.2898 25.92L35.9598 30.73V21.49L40.4498 18.82V14.57L35.9598 17.16V10.38H32.1898V17.16L27.6998 14.57V18.82L32.1898 21.49V30.73L24.1798 26.11L24.1198 20.89L20.4298 18.76V23.95L14.5598 20.56L12.6798 23.82L18.5498 27.21L14.0498 29.81L17.7398 31.93L22.2998 29.38L30.2998 34L22.1898 38.68L17.6298 36.13L13.9498 38.26L18.4398 40.85L12.5698 44.24L14.4498 47.51L20.3298 44.11L20.3198 49.3L24.0098 47.17L24.0698 41.95L32.1898 37.27V47.01L27.6998 49.68V53.93L32.1898 51.34V57.62H35.9598V51.34L40.4498 53.93V49.68L35.9598 47.01V37.27L44.3998 42.14L44.4598 47.36L48.1498 49.49L48.1398 44.3L53.5898 47.44L55.4698 44.18Z" fill="#F0C830"></path><path d="M34 0C27.2755 0 20.7019 1.99406 15.1106 5.73003C9.51936 9.466 5.16149 14.7761 2.58811 20.9888C0.0147316 27.2015 -0.658582 34.0377 0.653316 40.6331C1.96521 47.2284 5.2034 53.2866 9.95839 58.0416C14.7134 62.7966 20.7716 66.0348 27.3669 67.3467C33.9623 68.6586 40.7986 67.9853 47.0113 65.4119C53.2239 62.8385 58.534 58.4807 62.27 52.8894C66.006 47.2981 68 40.7246 68 34C68 24.9826 64.4179 16.3346 58.0416 9.95837C51.6654 3.58213 43.0174 0 34 0ZM34 62.77C28.2983 62.768 22.7252 61.0748 17.986 57.9046C13.2468 54.7344 9.5545 50.2297 7.37619 44.9604C5.19788 39.6912 4.63151 33.8942 5.74872 28.303C6.86593 22.7117 9.61653 17.5775 13.6525 13.55C17.6884 9.52242 22.8284 6.78252 28.4219 5.67696C34.0154 4.5714 39.8112 5.14985 45.0759 7.33913C50.3407 9.52841 54.8377 13.2301 57.998 17.9759C61.1583 22.7217 62.8399 28.2983 62.83 34C62.8194 41.6411 59.7779 48.9659 54.373 54.3671C48.968 59.7683 41.6411 62.8047 34 62.81V62.77Z" fill="#F0C830"></path></svg> 