<?xml version="1.0" encoding="UTF-8"?> <svg xmlns="http://www.w3.org/2000/svg" width="89" height="48" viewBox="0 0 89 48" fill="none"><path d="M84.29 9.52C79.42 6.94 70.66 5.44 62.82 4.11C59.19 3.48 55.82 2.9 56.01 2.5C56.72 1.2 59.82 0.500001 62.86 0.0300007H50.29C48.68 0.610001 46.83 1.49 46.38 2.57C45.79 2.57 44.79 2.62 44.21 2.57C45.122 1.40744 46.3363 0.518302 47.72 0H38.11C36.9756 0.512057 35.9213 1.18572 34.98 2C32.88 3.9 33.7 5.36 36.23 6.56C38.93 7.85 43.5 8.86 48.43 9.92C54.65 11.28 61.67 12.78 48.74 19.3C32.25 27.72 16.15 37.41 0 47.03H24.69L28.18 44.42C29.46 44.86 30.75 45.25 32.03 45.65L30.36 47.02H57.61C65.28 39.8 73 32.7 80.91 25.38C87.19 19.61 91.49 13.3 84.29 9.52ZM38.13 40.86L34.41 39.66C40.3033 35.4933 46.2467 31.4733 52.24 27.6C53.43 27.94 54.63 28.25 55.83 28.6C49.86 32.52 44 36.57 38.13 40.86ZM45.48 4.69L44.57 4.26L46.95 3.86C50.72 5.59 55.01 5.92 58.95 6.78L57 7.52C53.0342 7.18698 49.1461 6.22846 45.48 4.68V4.69ZM61.27 25.07L57.78 24.16C61.57 21.7 65.9 19.69 69.15 16.06C70.24 16.19 71.33 16.34 72.42 16.49C69 20.52 65.37 22.64 61.27 25.07ZM70.75 13.81C70.75 10.36 64.5 9.23 62.55 8.72L64.76 8.02C67.23 8.65 73.06 9.86 73.21 13.87L70.75 13.81Z" fill="#F0C830"></path></svg> 