<?xml version="1.0" encoding="UTF-8"?> <svg xmlns="http://www.w3.org/2000/svg" width="85" height="34" viewBox="0 0 85 34" fill="none"><path fill-rule="evenodd" clip-rule="evenodd" d="M3.03295 0L21.5071 6.96433L21.546 10.153H30.1317V5.84925H26.0382V0.772726H39.9327L40.0591 5.6634L35.4308 5.73187V9.99655H46.2625L49.0628 13.0875L79.7397 3.76582L85 8.44131L81.5677 12.1093L77.6784 9.64442L73.8377 10.9551L59.0292 30.9678C58.4692 31.8532 57.7064 32.5906 56.8047 33.1182C55.9029 33.6458 54.8886 33.9482 53.8467 34H20.4084C17.7572 34 16.2825 32.6176 15.9843 29.8527V24.2578C16.0906 23.2661 15.8497 22.2682 15.303 21.4361C14.7563 20.6041 13.9381 19.9899 12.9896 19.6996L2.03145 15.5132C0.164585 14.6264 -0.415569 13.0222 0.290987 10.7008L3.03295 0ZM16.2469 9.88895L7.60288 6.63176C6.47498 6.21116 5.80407 6.52417 5.65823 7.69793L5.11372 10.065C5.00607 10.2527 4.94636 10.4643 4.93993 10.6809C4.93351 10.8976 4.98057 11.1124 5.07691 11.3062C5.17324 11.5 5.31585 11.6668 5.49196 11.7916C5.66807 11.9164 5.87219 11.9953 6.08605 12.0213L16.2469 15.7871V9.91829V9.88895ZM76.3074 22.7906C76.3074 31.3884 84.2999 29.5593 84.2999 23.3774C84.2999 19.9833 81.1982 18.8682 81.5094 15.9338C81.8205 12.9994 76.3074 19.3964 76.3074 22.7906Z" fill="#F0C830"></path></svg> 