<?xml version="1.0" encoding="UTF-8"?> <svg xmlns="http://www.w3.org/2000/svg" width="30" height="66" viewBox="0 0 30 66" fill="none"><path fill-rule="evenodd" clip-rule="evenodd" d="M28.9972 29.7288L22.3746 20.7383C23.2538 20.0478 24.0619 19.273 24.7871 18.4251C26.8819 16.0414 28.3391 13.1756 29.0255 10.0901C30.8136 1.03405 21.2299 -3.60169 15.1088 3.36597C12.2309 6.82294 10.6765 11.1737 10.719 15.653C11.6344 14.9653 12.7188 14.5321 13.86 14.3981C14.1211 11.1045 15.3844 7.96666 17.4834 5.39821C21.4664 0.874848 27.1145 3.60947 25.9981 9.50014C25.4065 12.0554 24.1917 14.4284 22.4598 16.4116C20.8136 18.2846 18.8931 19.6988 17.228 19.8486C16.7602 19.8972 16.2876 19.8262 15.8553 19.6426C15.4231 19.459 15.0455 19.1688 14.7587 18.7997C14.1979 18.9189 13.6937 19.2208 13.3267 19.6571C12.9596 20.0934 12.751 20.639 12.7342 21.2066C13.7643 22.2826 15.1823 22.9121 16.6793 22.9578C17.088 22.9721 17.497 22.9438 17.8997 22.8736C17.5003 23.4729 16.9185 23.9308 16.2387 24.1809C15.5588 24.431 14.8161 24.4604 14.1183 24.2648C13.4204 24.0692 12.8036 23.6587 12.3571 23.0928C11.9107 22.527 11.6578 21.8351 11.6352 21.1175C11.6125 20.3999 11.8212 19.6937 12.2311 19.1014C12.641 18.509 13.2307 18.0612 13.9149 17.8228C14.5991 17.5845 15.3421 17.5679 16.0365 17.7755C16.7308 17.9831 17.3403 18.4042 17.7767 18.9777C18.6294 18.6405 19.4143 18.1552 20.0946 17.5448C19.4756 16.7409 18.6703 16.0962 17.7467 15.6651C16.8232 15.234 15.8084 15.0291 14.7881 15.0676C13.7677 15.1062 12.7717 15.3871 11.884 15.8867C10.9964 16.3863 10.2431 17.0899 9.6878 17.9381L1.08798 29.682C0.429825 30.5529 0.0716471 31.61 0.0662249 32.6976L0 64.7263C0 65.0641 0.135558 65.3881 0.376854 65.627C0.618149 65.8658 0.945417 66 1.28666 66H28.6566C28.9881 65.9978 29.3061 65.869 29.544 65.6404C29.782 65.4119 29.9216 65.1012 29.9338 64.7732L30 32.7444C30.0001 31.6589 29.6486 30.602 28.9972 29.7288ZM21.1353 54.228C20.0027 55.2049 18.5974 55.8188 17.105 55.9887V57.946H12.8382V55.9418C11.5431 55.754 10.313 55.2592 9.2526 54.4996C8.02901 53.6193 7.41722 52.0803 7.41722 49.8826V48.9461H13.5667V50.1542C13.518 50.9861 13.5816 51.8207 13.7559 52.636C13.8789 52.9544 14.1911 53.1229 14.702 53.1229C15.5345 53.1229 15.9413 52.664 15.9413 51.7837C15.9823 50.98 15.8831 50.1753 15.6481 49.405C15.4588 48.9274 14.7966 48.4029 13.6708 47.841C12.1476 47.0731 9.74456 45.9961 8.64711 44.6756C6.97256 42.6621 6.63198 39.4311 8.87417 37.6236C10.0338 36.7885 11.4005 36.2804 12.8288 36.1533V34.4863H17.0956V36.1533C19.7067 36.556 22.053 37.7735 22.053 41.0326C22.053 41.2386 22.053 41.5476 21.9868 41.9691H15.8373V41.1449C15.8819 40.5657 15.8111 39.9834 15.6291 39.4311C15.5276 39.2807 15.3842 39.1626 15.2163 39.0912C15.0484 39.0197 14.8632 38.9979 14.6831 39.0284C13.8411 39.0284 13.5572 39.5997 13.5572 40.4238C13.5238 40.7217 13.5592 41.0232 13.6608 41.3055C13.7624 41.5878 13.9276 41.8435 14.1438 42.0533C15.1961 42.7466 16.3035 43.3542 17.4551 43.8702C18.5647 44.3708 19.6365 44.9498 20.6623 45.6027C21.339 46.1323 21.8766 46.8158 22.2291 47.5953C22.5816 48.3747 22.7386 49.2269 22.6868 50.0793C22.7338 50.8396 22.6201 51.6012 22.3529 52.3156C22.0858 53.0299 21.6711 53.6813 21.1353 54.228Z" fill="#F0C830"></path></svg> 