<svg xmlns="http://www.w3.org/2000/svg" xmlns:xlink="http://www.w3.org/1999/xlink" width="500" zoomAndPan="magnify" viewBox="0 0 375 374.999991" height="500" preserveAspectRatio="xMidYMid meet" version="1.0"><defs><g/><clipPath id="204e6dd689"><path d="M 106 190 L 138 190 L 138 212.796875 L 106 212.796875 Z M 106 190 " clip-rule="nonzero"/></clipPath><clipPath id="9ecbba3036"><path d="M 237 190 L 269 190 L 269 212.796875 L 237 212.796875 Z M 237 190 " clip-rule="nonzero"/></clipPath><clipPath id="149eac8695"><path d="M 108 111.546875 L 267 111.546875 L 267 177 L 108 177 Z M 108 111.546875 " clip-rule="nonzero"/></clipPath><clipPath id="f1b552b332"><path d="M 105.300781 154 L 269.550781 154 L 269.550781 210 L 105.300781 210 Z M 105.300781 154 " clip-rule="nonzero"/></clipPath></defs><g fill="#0a131e" fill-opacity="1"><g transform="translate(54.503907, 250.996858)"><g><path d="M 0.210938 0 L 9.199219 0 L 10.792969 -4.15625 L 20.832031 -4.15625 L 22.429688 0 L 31.457031 0 L 20.035156 -29.398438 L 11.632812 -29.398438 Z M 12.558594 -10.375 L 15.835938 -19.488281 L 19.109375 -10.375 Z M 12.558594 -10.375 "/></g></g></g><g fill="#0a131e" fill-opacity="1"><g transform="translate(86.171904, 250.996858)"><g><path d="M 15.75 0.628906 C 23.6875 0.628906 28.601562 -4.199219 28.601562 -12.097656 L 28.601562 -29.398438 L 20.160156 -29.398438 L 20.160156 -12.640625 C 20.160156 -9.15625 18.691406 -7.308594 15.75 -7.308594 C 12.808594 -7.308594 11.339844 -9.15625 11.339844 -12.640625 L 11.339844 -29.398438 L 2.855469 -29.398438 L 2.855469 -12.097656 C 2.855469 -4.199219 7.8125 0.628906 15.75 0.628906 Z M 15.75 0.628906 "/></g></g><g transform="translate(117.671904, 250.996858)"><g><path d="M 10.121094 0 L 18.5625 0 L 18.5625 -21.546875 L 27.511719 -21.546875 L 27.511719 -29.398438 L 1.175781 -29.398438 L 1.175781 -21.546875 L 10.121094 -21.546875 Z M 10.121094 0 "/></g></g><g transform="translate(146.357903, 250.996858)"><g><path d="M 17.429688 0.628906 C 26.796875 0.628906 33.433594 -5.710938 33.433594 -14.699219 C 33.433594 -23.6875 26.796875 -30.03125 17.429688 -30.03125 C 8.0625 -30.03125 1.429688 -23.6875 1.429688 -14.699219 C 1.429688 -5.710938 8.0625 0.628906 17.429688 0.628906 Z M 10.039062 -14.699219 C 10.039062 -19.109375 13.105469 -22.175781 17.429688 -22.175781 C 21.796875 -22.175781 24.820312 -19.109375 24.820312 -14.699219 C 24.820312 -10.289062 21.796875 -7.222656 17.429688 -7.222656 C 13.105469 -7.222656 10.039062 -10.289062 10.039062 -14.699219 Z M 10.039062 -14.699219 "/></g></g></g><g fill="#0a131e" fill-opacity="1"><g transform="translate(181.259896, 250.996858)"><g><path d="M 13.648438 0.628906 C 20.957031 0.628906 25.285156 -2.8125 25.285156 -8.609375 C 25.285156 -13.480469 22.132812 -16.339844 14.992188 -17.933594 C 11.214844 -18.773438 9.828125 -19.699219 9.828125 -21.210938 C 9.828125 -22.636719 11.089844 -23.519531 13.0625 -23.519531 C 15.414062 -23.519531 16.757812 -22.300781 16.757812 -20.074219 L 24.738281 -20.074219 C 24.738281 -26.125 20.117188 -30.03125 12.894531 -30.03125 C 5.964844 -30.03125 1.679688 -26.585938 1.679688 -21.042969 C 1.679688 -16.085938 4.914062 -13.019531 11.550781 -11.761719 C 15.121094 -11.046875 16.84375 -9.953125 16.84375 -8.273438 C 16.84375 -6.804688 15.582031 -5.964844 13.523438 -5.964844 C 11.089844 -5.964844 9.660156 -7.265625 9.660156 -9.535156 L 1.46875 -9.535156 C 1.46875 -3.191406 6.007812 0.628906 13.648438 0.628906 Z M 13.648438 0.628906 "/></g></g></g><g fill="#0a131e" fill-opacity="1"><g transform="translate(208.097892, 250.996858)"><g><path d="M 3.109375 0 L 23.730469 0 L 23.730469 -6.929688 L 11.507812 -6.929688 L 11.507812 -11.464844 L 22.132812 -11.464844 L 22.132812 -18.269531 L 11.507812 -18.269531 L 11.507812 -22.554688 L 23.269531 -22.554688 L 23.269531 -29.398438 L 3.109375 -29.398438 Z M 3.109375 0 "/></g></g></g><g fill="#0a131e" fill-opacity="1"><g transform="translate(233.717893, 250.996858)"><g><path d="M 3.109375 0 L 11.59375 0 L 11.59375 -8.359375 L 14.785156 -8.359375 L 18.984375 0 L 28.601562 0 L 23.183594 -9.910156 C 26.292969 -11.632812 28.054688 -14.742188 28.054688 -18.859375 C 28.054688 -25.367188 23.644531 -29.398438 16.507812 -29.398438 L 3.109375 -29.398438 Z M 11.425781 -15.121094 L 11.425781 -22.46875 L 15.371094 -22.46875 C 18.058594 -22.46875 19.53125 -21.167969 19.53125 -18.816406 C 19.53125 -16.464844 18.058594 -15.121094 15.371094 -15.121094 Z M 11.425781 -15.121094 "/></g></g></g><g fill="#0a131e" fill-opacity="1"><g transform="translate(263.957874, 250.996858)"><g><path d="M 11.257812 0 L 19.65625 0 L 30.703125 -29.398438 L 21.671875 -29.398438 L 18.226562 -19.699219 L 15.496094 -12.054688 L 12.769531 -19.699219 L 9.324219 -29.398438 L 0.210938 -29.398438 Z M 11.257812 0 "/></g></g></g><g fill="#0a131e" fill-opacity="1"><g transform="translate(294.869874, 250.996858)"><g><path d="M 3.109375 0 L 23.730469 0 L 23.730469 -6.929688 L 11.507812 -6.929688 L 11.507812 -11.464844 L 22.132812 -11.464844 L 22.132812 -18.269531 L 11.507812 -18.269531 L 11.507812 -22.554688 L 23.269531 -22.554688 L 23.269531 -29.398438 L 3.109375 -29.398438 Z M 3.109375 0 "/></g></g></g><path fill="#0a131e" d="M 117.859375 172.84375 C 124.40625 175.324219 134.355469 176.9375 137.5 177.121094 C 140.640625 177.308594 141.328125 176.5625 141.328125 176.5625 C 131.195312 174.640625 112.042969 167.628906 112.042969 167.628906 C 112.042969 167.628906 111.308594 170.359375 117.859375 172.84375 Z M 117.859375 172.84375 " fill-opacity="1" fill-rule="nonzero"/><path fill="#0a131e" d="M 262.792969 167.632812 C 262.792969 167.632812 243.644531 174.644531 233.507812 176.566406 C 233.507812 176.566406 234.191406 177.308594 237.339844 177.125 C 240.492188 176.941406 250.433594 175.328125 256.980469 172.847656 C 263.523438 170.367188 262.792969 167.632812 262.792969 167.632812 Z M 262.792969 167.632812 " fill-opacity="1" fill-rule="nonzero"/><g clip-path="url(#204e6dd689)"><path fill="#0a131e" d="M 106.800781 190.152344 L 107.234375 207.867188 C 107.238281 208.1875 107.269531 208.507812 107.332031 208.824219 C 107.394531 209.144531 107.488281 209.449219 107.609375 209.75 C 107.734375 210.046875 107.886719 210.332031 108.0625 210.601562 C 108.242188 210.871094 108.445312 211.117188 108.675781 211.347656 C 108.902344 211.578125 109.148438 211.78125 109.417969 211.960938 C 109.683594 212.140625 109.96875 212.292969 110.265625 212.417969 C 110.5625 212.539062 110.867188 212.632812 111.183594 212.699219 C 111.5 212.761719 111.820312 212.792969 112.140625 212.792969 L 132.308594 212.792969 C 132.660156 212.792969 133.003906 212.757812 133.347656 212.691406 C 133.6875 212.621094 134.019531 212.523438 134.34375 212.386719 C 134.664062 212.253906 134.972656 212.089844 135.261719 211.894531 C 135.550781 211.699219 135.820312 211.476562 136.066406 211.230469 C 136.3125 210.984375 136.53125 210.714844 136.726562 210.421875 C 136.921875 210.128906 137.085938 209.824219 137.21875 209.5 C 137.351562 209.175781 137.453125 208.84375 137.519531 208.5 C 137.589844 208.15625 137.621094 207.808594 137.621094 207.457031 C 137.621094 207.457031 123.789062 205.605469 115.199219 201.945312 C 108.390625 199.039062 106.800781 190.152344 106.800781 190.152344 Z M 106.800781 190.152344 " fill-opacity="1" fill-rule="nonzero"/></g><g clip-path="url(#9ecbba3036)"><path fill="#0a131e" d="M 259.648438 201.945312 C 251.058594 205.605469 237.222656 207.464844 237.222656 207.464844 C 237.222656 207.816406 237.257812 208.160156 237.328125 208.503906 C 237.394531 208.847656 237.496094 209.179688 237.628906 209.503906 C 237.761719 209.828125 237.925781 210.132812 238.121094 210.425781 C 238.3125 210.714844 238.535156 210.984375 238.78125 211.234375 C 239.027344 211.480469 239.296875 211.699219 239.585938 211.894531 C 239.875 212.089844 240.179688 212.253906 240.503906 212.386719 C 240.824219 212.523438 241.15625 212.625 241.496094 212.691406 C 241.839844 212.761719 242.183594 212.792969 242.53125 212.792969 L 262.707031 212.792969 C 263.027344 212.792969 263.347656 212.761719 263.664062 212.699219 C 263.980469 212.636719 264.289062 212.542969 264.585938 212.417969 C 264.882812 212.296875 265.167969 212.144531 265.4375 211.964844 C 265.703125 211.78125 265.953125 211.578125 266.179688 211.347656 C 266.410156 211.121094 266.613281 210.871094 266.792969 210.601562 C 266.972656 210.332031 267.121094 210.046875 267.246094 209.75 C 267.371094 209.449219 267.460938 209.140625 267.523438 208.824219 C 267.589844 208.503906 267.621094 208.183594 267.621094 207.859375 L 268.054688 190.148438 C 268.054688 190.148438 266.453125 199.039062 259.648438 201.945312 Z M 259.648438 201.945312 " fill-opacity="1" fill-rule="nonzero"/></g><path fill="#0a131e" d="M 187.421875 199.394531 C 169.707031 199.679688 154.433594 194.558594 154.433594 194.558594 C 167.304688 201.507812 187.421875 201.464844 187.421875 201.464844 C 187.421875 201.464844 207.53125 201.507812 220.414062 194.558594 C 220.414062 194.558594 205.640625 199.582031 187.421875 199.394531 Z M 187.421875 199.394531 " fill-opacity="1" fill-rule="nonzero"/><path fill="#0a131e" d="M 214.480469 189.78125 C 205.339844 193.046875 187.421875 193.15625 187.421875 193.15625 C 187.421875 193.15625 169.503906 193.046875 160.363281 189.777344 C 151.980469 186.773438 145.414062 180.039062 145.414062 180.039062 C 145.414062 180.039062 151.960938 188.230469 159.746094 191.457031 C 167.535156 194.6875 187.421875 195.054688 187.421875 195.054688 C 187.421875 195.054688 207.316406 194.683594 215.097656 191.457031 C 222.882812 188.234375 229.433594 180.039062 229.433594 180.039062 C 229.433594 180.039062 222.867188 186.773438 214.480469 189.78125 Z M 214.480469 189.78125 " fill-opacity="1" fill-rule="nonzero"/><path fill="#0a131e" d="M 187.421875 189.324219 C 187.421875 189.324219 207.316406 188.953125 215.097656 185.726562 C 219.691406 183.824219 223.847656 180.195312 226.492188 177.539062 C 226.148438 177.609375 225.6875 177.703125 225.5 177.746094 C 222.785156 179.867188 218.882812 182.472656 214.480469 184.050781 C 205.34375 187.316406 187.425781 187.425781 187.425781 187.425781 C 187.425781 187.425781 169.503906 187.316406 160.367188 184.046875 C 155.957031 182.472656 152.054688 179.863281 149.34375 177.742188 C 149.015625 177.683594 148.683594 177.617188 148.355469 177.542969 C 150.996094 180.199219 155.152344 183.824219 159.746094 185.726562 C 167.535156 188.953125 187.421875 189.324219 187.421875 189.324219 Z M 187.421875 189.324219 " fill-opacity="1" fill-rule="nonzero"/><g clip-path="url(#149eac8695)"><path fill="#0a131e" d="M 116.621094 160.742188 C 123.667969 164.25 151.035156 176.628906 187.421875 176.566406 C 223.8125 176.628906 251.179688 164.246094 258.226562 160.742188 C 264.738281 157.5 267.492188 154.226562 266.191406 150.503906 C 264.894531 146.78125 255.257812 141.570312 255.257812 141.570312 C 255.257812 141.570312 254.144531 140.449219 245.25 140.082031 C 245.25 140.082031 245 139.660156 244.566406 138.941406 C 245.503906 139.089844 246.417969 139.316406 247.316406 139.613281 C 253.527344 141.570312 261.035156 138.40625 260.386719 135.148438 C 259.742188 131.890625 252.230469 130.585938 248.804688 131.238281 C 245.375 131.890625 245.28125 135.984375 245.28125 135.984375 L 242.753906 135.984375 C 239.535156 130.832031 233.835938 122.160156 229.558594 118.121094 C 223.257812 112.160156 217.199219 111.910156 187.421875 111.546875 C 157.644531 111.917969 151.589844 112.167969 145.289062 118.121094 C 141.011719 122.164062 135.316406 130.832031 132.09375 135.988281 L 129.566406 135.988281 C 129.566406 135.988281 129.472656 131.894531 126.042969 131.242188 C 122.613281 130.59375 115.109375 131.902344 114.457031 135.152344 C 113.808594 138.40625 121.316406 141.574219 127.53125 139.617188 C 128.429688 139.320312 129.34375 139.09375 130.28125 138.945312 C 129.84375 139.664062 129.597656 140.085938 129.597656 140.085938 C 120.707031 140.453125 119.589844 141.570312 119.589844 141.570312 C 119.585938 141.570312 109.960938 146.78125 108.648438 150.503906 C 107.339844 154.226562 110.109375 157.5 116.621094 160.742188 Z M 146.582031 147.707031 C 146.859375 150.683594 148.339844 159.058594 148.339844 159.058594 L 143.429688 143.609375 L 149.730469 143.609375 C 149.730469 143.609375 146.300781 144.734375 146.582031 147.707031 Z M 187.421875 174.882812 C 187.421875 174.882812 168.515625 173.6875 154.0625 168.792969 C 154.0625 168.792969 176.117188 171.34375 187.421875 170.785156 C 198.726562 171.34375 220.785156 168.792969 220.785156 168.792969 C 206.328125 173.695312 187.421875 174.882812 187.421875 174.882812 Z M 227.917969 159.058594 C 227.917969 159.058594 229.402344 150.679688 229.679688 147.703125 C 229.957031 144.726562 226.527344 143.609375 226.527344 143.609375 L 232.835938 143.609375 Z M 149.980469 118.042969 C 155.257812 114.757812 162.601562 113.972656 187.421875 113.972656 C 210.09375 113.972656 220.242188 114.683594 224.765625 117.96875 C 231.09375 121.695312 237.253906 133.136719 242.726562 141.828125 L 187.421875 143.058594 L 132.3125 141.828125 C 137.78125 133.136719 143.648438 121.777344 149.980469 118.042969 Z M 149.980469 118.042969 " fill-opacity="1" fill-rule="nonzero"/></g><g clip-path="url(#f1b552b332)"><path fill="#0a131e" d="M 267.332031 154.425781 C 266.839844 159.480469 259.984375 162.285156 242.191406 168.800781 C 218.328125 177.542969 187.417969 177.867188 187.417969 177.867188 C 187.417969 177.867188 156.515625 177.542969 132.648438 168.800781 C 114.859375 162.285156 108.011719 159.480469 107.511719 154.425781 C 107.511719 154.425781 105.316406 157.253906 105.625 167.878906 C 105.964844 179.542969 105.996094 194.3125 114.523438 199.773438 C 120.867188 203.835938 142.257812 207.210938 153.097656 207.238281 C 153.101562 207.238281 153.105469 207.242188 153.109375 207.242188 C 189.457031 211.664062 221.863281 207.242188 221.863281 207.242188 C 232.738281 207.191406 254 203.820312 260.328125 199.769531 C 268.867188 194.3125 268.886719 179.542969 269.226562 167.878906 C 269.527344 157.253906 267.332031 154.425781 267.332031 154.425781 Z M 266.527344 167.753906 C 264.949219 169.367188 265.511719 169.988281 263.289062 181.15625 C 261.0625 192.328125 238.574219 194.1875 238.574219 194.1875 C 243.027344 184.382812 251.792969 176.070312 251.792969 176.070312 C 234.710938 183.09375 220.945312 196.035156 216.691406 202.574219 C 211.558594 203.457031 202.503906 204.550781 189.078125 204.550781 C 172.039062 204.550781 161.484375 202.207031 156.976562 200.925781 C 151.714844 194.042969 138.792969 182.542969 123.050781 176.070312 C 123.050781 176.070312 131.824219 184.382812 136.273438 194.1875 C 136.273438 194.1875 113.785156 192.324219 111.5625 181.15625 C 109.335938 169.988281 109.898438 169.367188 108.320312 167.753906 C 107.882812 166.097656 107.679688 164.410156 107.714844 162.695312 C 107.714844 162.695312 128.492188 178.550781 187.421875 179.605469 C 246.351562 178.550781 267.128906 162.695312 267.128906 162.695312 C 267.164062 164.410156 266.964844 166.097656 266.527344 167.753906 Z M 266.527344 167.753906 " fill-opacity="1" fill-rule="nonzero"/></g></svg>