<?xml version="1.0" encoding="UTF-8"?> <svg xmlns="http://www.w3.org/2000/svg" width="57" height="72" viewBox="0 0 57 72" fill="none"><path fill-rule="evenodd" clip-rule="evenodd" d="M0 23.8615H12.64V17.1615H18.49V36.3115H12.64V29.6415H0V23.8615ZM43.75 3.45153C43.8115 3.69674 43.8417 3.94874 43.84 4.20153V49.2915C43.8348 49.7763 43.7052 50.2516 43.4635 50.6718C43.2219 51.0921 42.8763 51.4432 42.46 51.6915C40.16 53.2315 34.36 53.4515 31.82 53.4515C29.28 53.4515 22.27 53.2915 20.36 51.0615C19.54 50.0615 19.71 49.0615 19.71 47.9015V4.19153C19.71 2.38153 21.49 1.38153 23.03 0.931534C27.31 -0.308466 36.78 -0.358465 40.97 1.07153C42.08 1.45153 43.43 2.23153 43.75 3.45153ZM41.63 3.55153C38.71 4.71153 36.83 8.14154 35.63 11.5515V8.10153C36.2024 6.08651 37.0114 4.14634 38.04 2.32153L37.04 2.18153C36.5038 3.21505 36.0394 4.28425 35.65 5.38154V2.05153L34.18 1.96154V51.5015L35.65 51.4115V51.2615C36.79 47.5115 38.65 43.0015 42 41.7515V40.4315C38.89 41.4315 36.93 45.0215 35.65 48.5415V45.0915C36.79 41.3415 38.65 36.8315 42 35.5815V34.2615C38.89 35.2615 36.93 38.8515 35.65 42.3715V38.9315C36.79 35.1815 38.65 30.6715 42 29.4215V28.1015C38.89 29.1015 36.93 32.6915 35.65 36.2115V32.7615C36.79 29.0115 38.65 24.5015 42 23.2515V21.9315C38.89 22.9315 36.93 26.5215 35.65 30.0415V26.6015C36.79 22.8515 38.65 18.3415 42 17.0915V15.7715C38.89 16.7715 36.93 20.3615 35.65 23.8815V20.4315C36.79 16.6815 38.65 12.1715 42 10.9215V9.60153C38.89 10.6015 36.93 14.1915 35.65 17.7115V14.2715C36.79 10.5215 38.65 6.01153 42 4.76153C42 4.26153 42.1 3.91153 41.68 3.55153H41.63ZM32.51 1.92154H31.03V51.5515H32.5V1.92154H32.51ZM29.36 1.96154L27.89 2.05153V5.38154C27.5 4.28771 27.0356 3.22188 26.5 2.19153L25.5 2.33153C26.5277 4.15326 27.3367 6.09002 27.91 8.10153V11.5415C26.68 8.15154 24.82 4.73153 21.91 3.54153C21.49 3.93153 21.57 4.23153 21.57 4.74153C24.88 6.00153 26.77 10.5015 27.91 14.2415V17.6815C26.63 14.1615 24.67 10.6115 21.57 9.57153V10.8915C24.88 12.1515 26.77 16.6515 27.91 20.3915V23.8615C26.63 20.3415 24.67 16.7915 21.57 15.7515V17.0715C24.88 18.3315 26.77 22.8315 27.91 26.5715V30.0115C26.63 26.4915 24.67 22.9415 21.57 21.9015V23.2615C24.88 24.5215 26.77 29.0215 27.91 32.7615V36.2015C26.63 32.6815 24.67 29.1315 21.57 28.0915V29.4115C24.88 30.6715 26.77 35.1715 27.91 38.9115V42.3515C26.66 38.8615 24.7 35.3015 21.6 34.2615V35.5815C24.91 36.8415 26.8 41.3415 27.94 45.0815V48.5215C26.66 45.0015 24.7 41.4515 21.6 40.4115V41.7315C24.91 42.9915 26.8 47.4915 27.94 51.2315V51.3915L29.41 51.4815V1.96154H29.36ZM21.6 46.6015V47.9215C23.0844 48.5724 24.3289 49.67 25.16 51.0615C25.57 51.1415 25.99 51.2015 26.41 51.2615C25.22 49.0915 23.66 47.2615 21.6 46.6015ZM37.12 51.2615C37.54 51.2115 37.96 51.1515 38.36 51.0815C39.1926 49.679 40.4449 48.5736 41.94 47.9215V46.5915C39.87 47.2815 38.36 49.0815 37.12 51.2515V51.2615Z" fill="#F0C830"></path><path fill-rule="evenodd" clip-rule="evenodd" d="M44.6899 67.2516V71.4516L56.3599 63.0516L44.6499 54.6516V58.8616H18.8799V54.6616L7.16992 63.0616L18.8799 71.4616V67.2616L44.6899 67.2516Z" fill="#F0C830"></path></svg> 