<svg xmlns="http://www.w3.org/2000/svg" xmlns:xlink="http://www.w3.org/1999/xlink" width="300" zoomAndPan="magnify" viewBox="0 0 224.87999 74.999997" height="100" preserveAspectRatio="xMidYMid meet" version="1.0"><defs><g/><clipPath id="bc3080f9b1"><path d="M 72 13 L 149 13 L 149 37.679688 L 72 37.679688 Z M 72 13 " clip-rule="nonzero"/></clipPath><clipPath id="d34d981224"><path d="M 80 23 L 96 23 L 96 37.679688 L 80 37.679688 Z M 80 23 " clip-rule="nonzero"/></clipPath><clipPath id="d6b3944b82"><path d="M 129 22 L 146 22 L 146 37.679688 L 129 37.679688 Z M 129 22 " clip-rule="nonzero"/></clipPath><clipPath id="2dd23e5067"><path d="M 85.40625 36.417969 L 130.824219 36.417969 L 130.824219 37.679688 L 85.40625 37.679688 Z M 85.40625 36.417969 " clip-rule="nonzero"/></clipPath><clipPath id="27abc10f6f"><path d="M 140.304688 36.054688 L 152.667969 36.054688 L 152.667969 37.5 L 140.304688 37.5 Z M 140.304688 36.054688 " clip-rule="nonzero"/></clipPath><clipPath id="7d29de0914"><path d="M 81 24 L 95 24 L 95 37.679688 L 81 37.679688 Z M 81 24 " clip-rule="nonzero"/></clipPath><clipPath id="9550879af2"><path d="M 93 30 L 125 30 L 125 37.679688 L 93 37.679688 Z M 93 30 " clip-rule="nonzero"/></clipPath></defs><g clip-path="url(#bc3080f9b1)"><path fill="#ffffff" d="M 75.503906 36.632812 C 75.503906 36.632812 76.816406 36.96875 81.375 37.324219 C 85.929688 37.679688 88.441406 37.164062 88.441406 37.164062 L 133.285156 36.925781 C 133.285156 36.925781 134.34375 37.503906 136.699219 37.375 C 139.054688 37.246094 141.253906 36.652344 141.253906 36.652344 L 142.988281 36.0625 C 142.988281 36.0625 147.667969 34.152344 148.484375 31.617188 C 149.304688 29.082031 148.832031 26.941406 148.832031 26.941406 C 148.832031 26.941406 146.554688 24.167969 146.476562 23.890625 C 146.398438 23.617188 145.140625 21.714844 145.140625 21.714844 L 135.714844 18.902344 C 135.714844 18.902344 113.433594 13.089844 109.761719 13.550781 C 106.09375 14.011719 105.65625 14.164062 105.65625 14.164062 L 99.59375 17.988281 L 96.84375 19.335938 C 96.84375 19.335938 81.289062 21.925781 79.066406 23.167969 C 76.84375 24.410156 72.074219 30.054688 72.367188 30.441406 C 72.65625 30.824219 75.40625 35.660156 75.40625 35.660156 L 75.503906 36.632812 " fill-opacity="1" fill-rule="evenodd"/></g><path fill="#999999" d="M 96.355469 28.304688 C 96.355469 28.304688 119.859375 27.355469 122.332031 29.136719 C 124.71875 30.859375 100.613281 33.144531 94.824219 34.128906 C 96.28125 31.929688 96.449219 30.890625 96.355469 28.304688 " fill-opacity="1" fill-rule="evenodd"/><path fill="#999999" d="M 100.460938 18.6875 C 100.125 19.058594 99.796875 19.46875 99.796875 19.46875 C 99.796875 19.46875 100.28125 19.34375 100.96875 19.191406 C 100.742188 18.96875 100.558594 18.785156 100.460938 18.6875 Z M 106.34375 19.175781 C 107.730469 19.195312 115.570312 19.363281 123.132812 20.683594 C 131.46875 22.136719 131.71875 22.21875 131.71875 22.21875 L 134.515625 21.300781 L 134.992188 19.863281 C 127.039062 17.96875 107.234375 11.445312 100.609375 18.527344 C 101.726562 18.152344 106.574219 16.578125 106.945312 17.207031 C 107.257812 17.734375 106.667969 18.707031 106.34375 19.175781 " fill-opacity="1" fill-rule="evenodd"/><g clip-path="url(#d34d981224)"><path fill="#000000" d="M 85.019531 25.710938 C 83.050781 26.855469 81.667969 28.9375 81.753906 31.339844 C 81.867188 34.414062 83.027344 35.78125 84.679688 36.761719 C 83.113281 35.496094 82.109375 33.550781 82.109375 31.367188 C 82.109375 29.023438 83.257812 26.957031 85.019531 25.710938 Z M 88.320312 23.4375 C 92.425781 23.4375 96 26.796875 96 30.9375 C 96 33.316406 95.140625 35.734375 93.066406 36.886719 C 92.703125 37.164062 92.3125 37.402344 91.898438 37.605469 L 86.007812 37.605469 C 85.90625 37.554688 85.804688 37.5 85.703125 37.445312 C 85.664062 37.550781 85.277344 37.519531 85.082031 37.425781 C 82.660156 36.226562 80.886719 34.410156 80.886719 30.9375 C 80.886719 27.363281 84.214844 23.4375 88.320312 23.4375 " fill-opacity="1" fill-rule="evenodd"/></g><path fill="#b3b3b3" d="M 92.929688 23.09375 C 95.617188 25.082031 94.730469 25.527344 94.730469 25.527344 C 91.84375 22.039062 84.703125 22.039062 81.8125 25.527344 C 81.8125 25.527344 80.929688 25.082031 83.613281 23.09375 C 86.273438 21.125 90.269531 21.125 92.929688 23.09375 " fill-opacity="1" fill-rule="evenodd"/><g clip-path="url(#d6b3944b82)"><path fill="#000000" d="M 137.234375 22.292969 C 141.671875 22.292969 145.269531 25.925781 145.269531 30.402344 C 145.269531 33.222656 143.84375 35.707031 141.683594 37.160156 C 141.628906 37.105469 141.59375 37.046875 141.566406 36.980469 C 141.34375 37.121094 141.113281 37.253906 140.875 37.375 L 134.984375 37.375 C 132.675781 36.230469 131.082031 33.789062 131.082031 30.964844 C 131.082031 27.042969 134.148438 23.863281 137.929688 23.863281 C 138.402344 23.863281 138.863281 23.914062 139.308594 24.007812 C 138.695312 23.828125 138.050781 23.734375 137.378906 23.734375 C 133.53125 23.734375 129.988281 26.882812 130.132812 30.839844 C 130.265625 34.558594 131.824219 35.960938 133.949219 37.0625 C 134.9375 37.574219 134.0625 37.578125 133.730469 37.414062 C 131.113281 36.121094 129.195312 34.15625 129.195312 30.402344 C 129.195312 26.539062 132.792969 22.292969 137.234375 22.292969 " fill-opacity="1" fill-rule="evenodd"/></g><g clip-path="url(#2dd23e5067)"><path fill="#000000" d="M 86.160156 36.496094 C 86.160156 36.496094 130.753906 36.34375 130.753906 36.652344 C 130.753906 36.960938 86.058594 37.710938 85.667969 37.679688 C 85.28125 37.648438 86.160156 36.496094 86.160156 36.496094 " fill-opacity="1" fill-rule="evenodd"/></g><g clip-path="url(#27abc10f6f)"><path fill="#000000" d="M 141.273438 36.226562 C 141.273438 36.226562 152.777344 36.421875 152.667969 36.726562 C 152.558594 37.03125 140.644531 37.652344 140.476562 37.292969 C 140.304688 36.9375 141.273438 36.226562 141.273438 36.226562 " fill-opacity="1" fill-rule="evenodd"/></g><path fill="#ffffff" d="M 137.058594 30.355469 C 136.96875 30.421875 136.863281 30.460938 136.742188 30.476562 C 136.773438 30.578125 136.777344 30.683594 136.757812 30.800781 C 136.859375 30.800781 136.960938 30.828125 137.058594 30.882812 C 137.09375 30.789062 137.152344 30.707031 137.230469 30.632812 C 137.15625 30.5625 137.097656 30.46875 137.058594 30.355469 Z M 132.804688 26.199219 C 132.753906 26.113281 132.78125 25.996094 132.871094 25.945312 C 132.960938 25.894531 133.074219 25.921875 133.125 26.011719 C 133.132812 26.019531 134.714844 28.757812 135.894531 29.75 C 135.972656 29.78125 136.042969 29.8125 136.109375 29.847656 C 136.25 29.921875 136.371094 30 136.46875 30.085938 C 136.484375 30.089844 136.492188 30.089844 136.507812 30.09375 C 136.84375 30.15625 136.785156 29.800781 136.855469 29.394531 C 137.074219 28.152344 135.929688 24.1875 136.492188 24.09375 C 136.597656 24.078125 136.691406 24.144531 136.710938 24.246094 C 136.929688 25.582031 137.496094 27.320312 137.511719 28.765625 C 138.433594 27.308594 140.285156 25.535156 140.296875 25.53125 C 140.371094 25.457031 140.488281 25.460938 140.558594 25.535156 C 140.628906 25.613281 140.625 25.730469 140.550781 25.804688 C 140.542969 25.8125 137.316406 28.894531 137.378906 30.054688 C 137.390625 30.257812 137.507812 30.363281 137.695312 30.394531 C 137.84375 30.363281 138.019531 30.351562 138.214844 30.363281 C 139.761719 30.042969 142.941406 28.117188 143.167969 28.675781 C 143.210938 28.773438 143.164062 28.882812 143.070312 28.921875 C 142.902344 28.992188 142.636719 29.125 142.3125 29.285156 C 141.535156 29.667969 140.410156 30.226562 139.414062 30.566406 C 141.011719 30.976562 142.886719 31.851562 142.894531 31.855469 C 142.988281 31.898438 143.03125 32.011719 142.988281 32.105469 C 142.945312 32.199219 142.691406 32.367188 142.328125 32.195312 C 141.925781 32.011719 139.660156 30.910156 138.382812 30.835938 C 138.285156 30.847656 138.191406 30.859375 138.101562 30.863281 C 138.035156 30.867188 137.972656 30.867188 137.914062 30.867188 C 137.585938 30.953125 137.421875 31.054688 137.660156 31.574219 C 138.355469 33.082031 139.859375 34.039062 141.003906 35.21875 C 141.214844 35.433594 141.0625 35.976562 140.804688 35.714844 C 140.675781 35.585938 140.457031 35.382812 140.1875 35.140625 C 139.511719 34.523438 138.523438 33.617188 137.828125 32.769531 C 138.011719 34.453125 137.808594 36.664062 137.808594 36.675781 C 137.796875 36.777344 137.707031 36.855469 137.605469 36.847656 C 136.808594 36.703125 137.34375 34.765625 137.238281 33.152344 C 137.195312 32.5 137.222656 31.847656 136.914062 31.53125 C 136.734375 31.34375 136.582031 31.300781 136.394531 31.417969 C 136.335938 31.472656 136.269531 31.523438 136.199219 31.578125 C 135.429688 32.339844 134.660156 34.175781 134.179688 35.34375 C 134.035156 35.691406 133.921875 35.976562 133.839844 36.140625 C 133.792969 36.234375 133.683594 36.273438 133.589844 36.230469 C 133.496094 36.179688 133.460938 36.070312 133.503906 35.976562 C 133.582031 35.816406 133.695312 35.539062 133.835938 35.199219 C 134.191406 34.328125 134.722656 33.042969 135.300781 32.09375 C 133.769531 32.8125 131.554688 33.332031 131.546875 33.335938 C 131.203125 33.417969 131.164062 32.761719 131.648438 32.613281 C 131.660156 32.609375 135.625 31.835938 136.152344 30.804688 C 136.246094 30.617188 136.28125 30.5 136.214844 30.394531 C 136.070312 30.328125 135.914062 30.226562 135.753906 30.097656 C 134.734375 29.667969 132.832031 29.527344 131.660156 29.441406 C 131.289062 29.414062 130.988281 29.390625 130.800781 29.367188 C 130.699219 29.351562 130.628906 29.257812 130.640625 29.15625 C 130.65625 29.050781 130.75 28.980469 130.851562 28.992188 C 131.019531 29.015625 131.316406 29.039062 131.6875 29.066406 C 132.636719 29.136719 134.054688 29.242188 135.144531 29.511719 C 133.992188 28.253906 132.808594 26.210938 132.804688 26.199219 " fill-opacity="1" fill-rule="nonzero"/><g clip-path="url(#7d29de0914)"><path fill="#ffffff" d="M 88.21875 30.742188 C 88.128906 30.808594 88.027344 30.847656 87.90625 30.863281 C 87.933594 30.960938 87.941406 31.066406 87.921875 31.179688 C 88.023438 31.183594 88.121094 31.210938 88.21875 31.261719 C 88.253906 31.171875 88.308594 31.089844 88.386719 31.015625 C 88.3125 30.945312 88.257812 30.855469 88.21875 30.742188 Z M 84.023438 26.648438 C 83.972656 26.5625 84.003906 26.445312 84.089844 26.394531 C 84.179688 26.34375 84.289062 26.371094 84.339844 26.460938 C 84.347656 26.472656 85.90625 29.167969 87.070312 30.144531 C 87.144531 30.175781 87.214844 30.207031 87.28125 30.242188 C 87.417969 30.3125 87.539062 30.394531 87.636719 30.476562 C 87.648438 30.480469 87.660156 30.484375 87.675781 30.484375 C 88.003906 30.546875 87.949219 30.199219 88.019531 29.796875 C 88.230469 28.570312 87.105469 24.664062 87.660156 24.566406 C 87.761719 24.550781 87.855469 24.621094 87.875 24.722656 C 88.089844 26.035156 88.648438 27.75 88.664062 29.175781 C 89.570312 27.742188 91.402344 25.992188 91.410156 25.984375 C 91.480469 25.917969 91.597656 25.917969 91.667969 25.992188 C 91.738281 26.066406 91.734375 26.183594 91.660156 26.253906 C 91.652344 26.265625 88.472656 29.304688 88.535156 30.445312 C 88.546875 30.644531 88.660156 30.746094 88.847656 30.78125 C 88.992188 30.746094 89.164062 30.738281 89.355469 30.746094 C 90.882812 30.4375 94.015625 28.539062 94.242188 29.089844 C 94.28125 29.183594 94.238281 29.289062 94.144531 29.332031 C 93.976562 29.398438 93.71875 29.527344 93.394531 29.6875 C 92.628906 30.066406 91.523438 30.617188 90.539062 30.949219 C 92.113281 31.355469 93.964844 32.21875 93.96875 32.222656 C 94.0625 32.265625 94.105469 32.375 94.0625 32.464844 C 94.019531 32.5625 93.773438 32.726562 93.410156 32.558594 C 93.015625 32.375 90.78125 31.292969 89.523438 31.214844 C 89.425781 31.230469 89.335938 31.238281 89.246094 31.246094 C 89.183594 31.25 89.121094 31.25 89.058594 31.25 C 88.738281 31.332031 88.578125 31.433594 88.8125 31.941406 C 89.5 33.433594 90.980469 34.378906 92.109375 35.535156 C 92.3125 35.75 92.164062 36.285156 91.910156 36.023438 C 91.785156 35.894531 91.570312 35.699219 91.304688 35.457031 C 90.636719 34.851562 89.660156 33.960938 88.976562 33.121094 C 89.15625 34.78125 88.957031 36.964844 88.957031 36.972656 C 88.945312 37.074219 88.859375 37.148438 88.757812 37.140625 C 87.972656 37 88.5 35.09375 88.394531 33.5 C 88.351562 32.855469 88.382812 32.214844 88.074219 31.902344 C 87.898438 31.71875 87.75 31.675781 87.5625 31.789062 C 87.503906 31.84375 87.4375 31.894531 87.371094 31.949219 C 86.613281 32.699219 85.851562 34.507812 85.378906 35.660156 C 85.238281 36.003906 85.125 36.28125 85.042969 36.445312 C 85 36.539062 84.890625 36.578125 84.800781 36.53125 C 84.707031 36.488281 84.667969 36.375 84.710938 36.28125 C 84.789062 36.125 84.902344 35.855469 85.039062 35.515625 C 85.394531 34.660156 85.914062 33.390625 86.484375 32.453125 C 84.976562 33.164062 82.789062 33.675781 82.78125 33.679688 C 82.445312 33.761719 82.402344 33.117188 82.882812 32.96875 C 82.898438 32.964844 86.808594 32.203125 87.324219 31.183594 C 87.417969 31 87.453125 30.886719 87.386719 30.78125 C 87.242188 30.714844 87.089844 30.617188 86.933594 30.488281 C 85.925781 30.066406 84.050781 29.929688 82.894531 29.839844 C 82.527344 29.8125 82.234375 29.792969 82.046875 29.765625 C 81.945312 29.753906 81.875 29.660156 81.890625 29.558594 C 81.90625 29.457031 81.996094 29.386719 82.097656 29.398438 C 82.261719 29.421875 82.558594 29.441406 82.921875 29.46875 C 83.859375 29.539062 85.257812 29.644531 86.328125 29.910156 C 85.191406 28.667969 84.027344 26.65625 84.023438 26.648438 " fill-opacity="1" fill-rule="nonzero"/></g><g clip-path="url(#9550879af2)"><path fill="#000000" d="M 94.375 34.769531 C 98.59375 34.847656 123.65625 32.371094 124.777344 30.414062 C 125.4375 32.167969 96.574219 37.226562 93.242188 37.222656 L 94.375 34.769531 " fill-opacity="1" fill-rule="evenodd"/></g><path fill="#000000" d="M 100.917969 18.769531 C 102.59375 18.726562 104.378906 18.738281 106.226562 18.789062 C 106.390625 18.5 106.542969 18.1875 106.589844 17.929688 C 106.625 17.738281 106.570312 17.585938 106.3125 17.535156 C 104.699219 17.238281 102.347656 18.121094 100.917969 18.769531 Z M 135.789062 19.660156 C 129.757812 17.894531 113.371094 13.324219 108.84375 14.410156 C 106.261719 15.03125 103.992188 16.253906 102.289062 17.386719 C 103.648438 16.914062 105.21875 16.546875 106.453125 16.773438 C 107.277344 16.925781 107.457031 17.441406 107.34375 18.066406 C 107.300781 18.3125 107.203125 18.570312 107.082031 18.816406 C 115.121094 19.105469 124.195312 20.164062 130.550781 21.269531 C 132.519531 20.605469 134.609375 19.894531 135.789062 19.660156 Z M 73.492188 31.714844 C 74.171875 31.675781 75.710938 31.605469 76.613281 31.648438 C 77.789062 31.707031 76.515625 37.273438 75.207031 36.578125 C 75.191406 36.589844 75.160156 36.570312 75.121094 36.527344 C 74.5625 36.15625 74.113281 35.175781 73.785156 34.195312 C 73.074219 32.757812 72.367188 31.085938 72.367188 30.441406 C 72.367188 29.136719 73.964844 27.339844 73.964844 27.339844 C 74.597656 26.433594 75.710938 25.082031 77.230469 24.160156 C 78.105469 23.625 78.683594 23.328125 79.066406 23.167969 C 79.066406 23.167969 81.636719 21.839844 88.746094 20.570312 C 92.316406 19.933594 94.410156 19.574219 95.613281 19.371094 C 97.890625 17.898438 104.140625 14.085938 108.917969 13.261719 C 114.03125 12.375 132.097656 16.601562 137.824219 18.640625 C 137.992188 18.652344 138.917969 18.726562 140.089844 18.816406 L 141.742188 17.101562 C 141.28125 17.066406 140.925781 17.027344 140.746094 16.984375 C 139.824219 16.78125 139.042969 15.648438 139.042969 15.648438 L 140.183594 15.734375 C 140.183594 15.734375 140.882812 16.351562 142.582031 16.417969 C 144.28125 16.488281 148.707031 16.195312 148.6875 15.988281 C 148.671875 15.785156 141.203125 15.800781 141.203125 15.800781 L 141.1875 15.558594 C 141.1875 15.558594 148.65625 15.078125 149.675781 15.320312 C 150.695312 15.558594 149.300781 16.882812 148.144531 17.140625 C 147.742188 17.230469 146.835938 17.261719 145.789062 17.261719 C 145.371094 17.769531 144.621094 18.570312 144.113281 19.09375 C 144.914062 19.136719 145.550781 19.160156 145.832031 19.148438 C 146.953125 19.097656 146.9375 19.199219 146.9375 19.199219 C 146.9375 19.199219 147.414062 22.21875 147.566406 22.527344 C 147.71875 22.839844 149.964844 28.023438 149.589844 29.601562 C 149.214844 31.179688 146.085938 34.511719 146.085938 34.511719 C 146.085938 34.511719 149.011719 30.082031 148.367188 28.433594 C 147.71875 26.785156 145.433594 23.824219 143.53125 22.40625 C 142.351562 22.019531 140.621094 21.609375 138.429688 21.515625 C 134.101562 21.339844 131.058594 23.527344 126.460938 24.109375 C 121.863281 24.691406 118.191406 22.992188 118.191406 22.992188 C 118.191406 22.992188 125.589844 22.871094 128.039062 22.097656 C 128.128906 22.074219 128.21875 22.042969 128.3125 22.015625 C 111.851562 19.761719 105.574219 19.867188 95.917969 20.507812 C 92.808594 20.933594 87.929688 21.628906 85.277344 22.152344 C 82.917969 22.613281 81.015625 23.304688 79.832031 23.8125 C 79.792969 24.789062 79.539062 26.480469 78.3125 27.699219 C 77.171875 28.832031 75.511719 28.785156 74.433594 28.589844 C 73.847656 29.261719 73.171875 30.082031 73.113281 30.371094 C 73.085938 30.519531 73.246094 31.039062 73.492188 31.714844 " fill-opacity="1" fill-rule="evenodd"/><g fill="#000000" fill-opacity="1"><g transform="translate(13.575358, 59.420056)"><g><path d="M 14.207031 -15.5 C 15.628906 -15.5 16.792969 -14.335938 16.792969 -12.917969 L 16.792969 -7.75 L 3.875 -7.75 L 3.875 -12.917969 C 3.875 -14.335938 5.039062 -15.5 6.457031 -15.5 Z M 19.375 -12.917969 C 19.296875 -15.785156 16.972656 -18.082031 14.207031 -18.082031 L 6.457031 -18.082031 C 3.566406 -18.082031 1.292969 -15.65625 1.292969 -12.917969 L 1.292969 0 L 3.875 0 L 3.875 -5.167969 L 16.792969 -5.167969 L 16.792969 0 L 19.375 0 Z M 19.375 -12.917969 "/></g></g></g><g fill="#000000" fill-opacity="1"><g transform="translate(36.514601, 59.420056)"><g><path d="M 16.792969 -5.167969 C 16.792969 -3.746094 15.628906 -2.582031 14.207031 -2.582031 L 6.457031 -2.582031 C 5.039062 -2.582031 3.875 -3.746094 3.875 -5.167969 L 3.875 -18.082031 L 1.292969 -18.082031 L 1.292969 -5.167969 C 1.292969 -2.246094 3.695312 0 6.457031 0 L 14.207031 0 C 17.101562 0 19.375 -2.429688 19.375 -5.167969 L 19.375 -18.082031 L 16.792969 -18.082031 Z M 16.792969 -5.167969 "/></g></g></g><g fill="#000000" fill-opacity="1"><g transform="translate(59.453844, 59.420056)"><g><path d="M 18.082031 -15.5 L 18.082031 -18.082031 L 0 -18.082031 L 0 -15.5 L 7.75 -15.5 L 7.75 0 L 10.332031 0 L 10.332031 -15.5 Z M 18.082031 -15.5 "/></g></g></g><g fill="#000000" fill-opacity="1"><g transform="translate(79.809894, 59.420056)"><g><path d="M 16.535156 -5.167969 C 16.535156 -3.746094 15.371094 -2.582031 13.949219 -2.582031 L 6.199219 -2.582031 C 4.777344 -2.582031 3.617188 -3.746094 3.617188 -5.167969 L 3.617188 -12.917969 C 3.617188 -14.335938 4.777344 -15.5 6.199219 -15.5 L 13.949219 -15.5 C 15.371094 -15.5 16.535156 -14.335938 16.535156 -12.917969 Z M 19.117188 -12.917969 C 19.117188 -15.734375 16.6875 -18.082031 13.949219 -18.082031 L 6.199219 -18.082031 C 3.359375 -18.082031 1.035156 -15.757812 1.035156 -12.917969 L 1.035156 -5.167969 C 1.035156 -2.300781 3.332031 0 6.199219 0 L 13.949219 0 C 16.792969 0 19.117188 -2.324219 19.117188 -5.167969 Z M 19.117188 -12.917969 "/></g></g></g><g fill="#000000" fill-opacity="1"><g transform="translate(102.232497, 59.420056)"><g><path d="M 19.117188 -5.167969 C 19.117188 -8.035156 16.664062 -10.332031 13.949219 -10.332031 L 6.199219 -10.332031 C 4.777344 -10.332031 3.617188 -11.496094 3.617188 -12.917969 C 3.617188 -14.335938 4.777344 -15.5 6.199219 -15.5 L 13.949219 -15.5 C 15.371094 -15.5 16.535156 -14.335938 16.535156 -12.917969 L 19.117188 -12.917969 C 19.039062 -15.785156 16.714844 -18.082031 13.949219 -18.082031 L 6.199219 -18.082031 C 3.308594 -18.082031 1.035156 -15.65625 1.035156 -12.917969 C 1.035156 -9.996094 3.4375 -7.75 6.199219 -7.75 L 13.949219 -7.75 C 15.371094 -7.75 16.535156 -6.585938 16.535156 -5.167969 C 16.535156 -3.746094 15.371094 -2.582031 13.949219 -2.582031 L 6.199219 -2.582031 C 4.777344 -2.582031 3.617188 -3.746094 3.617188 -5.167969 L 1.035156 -5.167969 C 1.109375 -2.246094 3.382812 0 6.199219 0 L 13.949219 0 C 16.84375 0 19.117188 -2.429688 19.117188 -5.167969 Z M 19.117188 -5.167969 "/></g></g></g><g fill="#000000" fill-opacity="1"><g transform="translate(124.6551, 59.420056)"><g><path d="M 3.875 -15.5 L 19.375 -15.5 L 19.375 -18.082031 L 1.292969 -18.082031 L 1.292969 0 L 19.375 0 L 19.375 -2.582031 L 3.875 -2.582031 L 3.875 -7.75 L 16.792969 -7.75 L 16.792969 -10.332031 L 3.875 -10.332031 Z M 3.875 -15.5 "/></g></g></g><g fill="#000000" fill-opacity="1"><g transform="translate(147.077703, 59.420056)"><g><path d="M 16.792969 -10.332031 C 16.792969 -8.914062 15.628906 -7.75 14.207031 -7.75 L 3.875 -7.75 L 3.875 -15.5 L 14.207031 -15.5 C 15.628906 -15.5 16.792969 -14.335938 16.792969 -12.917969 Z M 19.375 0 L 19.375 -1.835938 L 15.785156 -5.425781 C 17.929688 -6.148438 19.375 -8.136719 19.375 -10.332031 L 19.375 -12.917969 C 19.375 -15.785156 16.921875 -18.082031 14.207031 -18.082031 L 1.292969 -18.082031 L 1.292969 0 L 3.875 0 L 3.875 -5.167969 L 12.375 -5.167969 L 17.542969 0 Z M 19.375 0 "/></g></g></g><g fill="#000000" fill-opacity="1"><g transform="translate(169.758633, 59.420056)"><g><path d="M 7.105469 0 L 12.011719 0 L 18.601562 -12.917969 L 18.601562 -18.082031 L 16.015625 -18.082031 L 16.015625 -13.535156 L 10.4375 -2.582031 L 8.679688 -2.582031 L 3.101562 -13.535156 L 3.101562 -18.082031 L 0.515625 -18.082031 L 0.515625 -12.917969 Z M 7.105469 0 "/></g></g></g><g fill="#000000" fill-opacity="1"><g transform="translate(191.147954, 59.420056)"><g><path d="M 3.875 -15.5 L 19.375 -15.5 L 19.375 -18.082031 L 1.292969 -18.082031 L 1.292969 0 L 19.375 0 L 19.375 -2.582031 L 3.875 -2.582031 L 3.875 -7.75 L 16.792969 -7.75 L 16.792969 -10.332031 L 3.875 -10.332031 Z M 3.875 -15.5 "/></g></g></g></svg>