<?xml version="1.0" encoding="UTF-8"?> <svg xmlns="http://www.w3.org/2000/svg" width="70" height="64" viewBox="0 0 70 64" fill="none"><path fill-rule="evenodd" clip-rule="evenodd" d="M19.4087 32.1168C19.4306 35.6036 20.4858 39.0056 22.4411 41.8927C24.3964 44.7797 27.1639 47.0221 30.3936 48.3363C33.6233 49.6505 37.1702 49.9775 40.5857 49.2759C44.0013 48.5743 47.1321 46.8757 49.5822 44.3948C52.0324 41.9139 53.6918 38.7621 54.3507 35.3381C55.0097 31.914 54.6385 28.3715 53.284 25.1585C51.9296 21.9454 49.6529 19.2061 46.7417 17.287C43.8304 15.3679 40.4155 14.3552 36.9287 14.3768C34.6131 14.3899 32.3228 14.8593 30.1888 15.7582C28.0547 16.657 26.1188 17.9677 24.4916 19.6153C22.8645 21.2629 21.578 23.2151 20.7059 25.3602C19.8337 27.5053 19.3929 29.8013 19.4087 32.1168ZM30.9187 32.0068C30.9109 30.7984 31.2615 29.6148 31.9263 28.6057C32.5911 27.5966 33.5402 26.8072 34.6536 26.3375C35.767 25.8677 36.9947 25.7387 38.1814 25.9667C39.3681 26.1947 40.4606 26.7695 41.3207 27.6184C42.1807 28.4672 42.7698 29.5521 43.0133 30.7357C43.2568 31.9194 43.1438 33.1487 42.6887 34.2681C42.2336 35.3876 41.4568 36.3469 40.4564 37.0249C39.4561 37.7028 38.2771 38.0689 37.0687 38.0768C36.2664 38.0821 35.4708 37.9293 34.7275 37.6271C33.9842 37.3249 33.3076 36.8792 32.7366 36.3156C32.1655 35.7519 31.711 35.0813 31.3991 34.342C31.0872 33.6027 30.924 32.8092 30.9187 32.0068ZM22.7987 32.0568C22.7948 31.5501 22.9413 31.0536 23.2197 30.6302C23.4982 30.2068 23.896 29.8756 24.3628 29.6785C24.8297 29.4814 25.3445 29.4272 25.8421 29.5229C26.3398 29.6186 26.7978 29.8599 27.1582 30.2161C27.5186 30.5723 27.7652 31.0274 27.8667 31.5239C27.9683 32.0204 27.9202 32.5358 27.7286 33.0049C27.5369 33.474 27.2104 33.8757 26.7903 34.1591C26.3702 34.4425 25.8755 34.5948 25.3687 34.5968C24.6915 34.5995 24.0408 34.3337 23.5591 33.8577C23.0774 33.3816 22.804 32.7341 22.7987 32.0568ZM33.2987 45.6968C32.81 45.5644 32.3715 45.29 32.0387 44.9083C31.7059 44.5267 31.4938 44.0549 31.4291 43.5526C31.3645 43.0504 31.4503 42.5403 31.6756 42.0868C31.901 41.6333 32.2557 41.2568 32.6951 41.005C33.1344 40.7531 33.6385 40.6372 34.1437 40.672C34.6489 40.7067 35.1324 40.8904 35.5332 41.2C35.9339 41.5096 36.2339 41.931 36.3951 42.411C36.5562 42.8911 36.5714 43.4082 36.4387 43.8968C36.2609 44.5518 35.8302 45.1094 35.2414 45.4469C34.6526 45.7844 33.9538 45.8743 33.2987 45.6968ZM48.0987 41.0068C47.7803 41.4005 47.3523 41.6909 46.8688 41.8413C46.3853 41.9917 45.8681 41.9954 45.3825 41.8518C44.8969 41.7083 44.4649 41.4239 44.1409 41.0348C43.8169 40.6456 43.6156 40.1692 43.5625 39.6656C43.5093 39.1621 43.6067 38.6541 43.8423 38.2059C44.0779 37.7577 44.4411 37.3894 44.8859 37.1476C45.3308 36.9058 45.8374 36.8014 46.3417 36.8475C46.8459 36.8937 47.3251 37.0883 47.7187 37.4068C48.2465 37.8339 48.5829 38.453 48.6542 39.1282C48.7255 39.8033 48.5257 40.479 48.0987 41.0068ZM47.9987 23.0068C48.3221 23.3968 48.5226 23.8739 48.5747 24.3778C48.6269 24.8816 48.5283 25.3897 48.2916 25.8375C48.0548 26.2854 47.6906 26.653 47.2448 26.8937C46.7991 27.1344 46.292 27.2375 45.7876 27.1898C45.2833 27.1422 44.8044 26.946 44.4116 26.6261C44.0188 26.3062 43.7298 25.8769 43.5811 25.3927C43.4324 24.9084 43.4307 24.3909 43.5763 23.9057C43.7218 23.4204 44.008 22.9893 44.3987 22.6668C44.9215 22.2353 45.5942 22.0288 46.269 22.0925C46.9439 22.1563 47.566 22.4851 47.9987 23.0068ZM33.1487 18.3168C33.6358 18.1778 34.1532 18.1863 34.6354 18.3414C35.1176 18.4964 35.5429 18.7911 35.8576 19.188C36.1723 19.5849 36.3622 20.0662 36.4032 20.5711C36.4443 21.0759 36.3346 21.5816 36.0881 22.0241C35.8417 22.4666 35.4695 22.8261 35.0187 23.057C34.5678 23.2879 34.0586 23.3799 33.5555 23.3213C33.0524 23.2627 32.578 23.0562 32.1923 22.7278C31.8066 22.3995 31.5269 21.9642 31.3887 21.4768C31.2037 20.8244 31.2852 20.1253 31.6151 19.5328C31.9451 18.9404 32.4967 18.503 33.1487 18.3168ZM15.2587 2.06684L16.5287 1.14684L26.0887 14.2968L24.8187 15.2168C20.9409 18.04 18.1597 22.1184 16.9475 26.7594C15.7353 31.4004 16.1668 36.3179 18.1687 40.6768L18.8287 42.1068L4.04874 48.8868L3.38874 47.4668C-0.18803 39.695 -0.961008 30.9239 1.20137 22.6463C3.36375 14.3687 8.32785 7.09631 15.2487 2.06684H15.2587ZM10.5087 49.8968L14.2887 48.1568C17.3632 52.4827 21.6081 55.8415 26.5249 57.8389C31.4418 59.8364 36.8265 60.3895 42.0467 59.4333C47.2669 58.4772 52.106 56.0515 55.9957 52.4411C59.8854 48.8306 62.6643 44.1853 64.006 39.0506C65.3477 33.916 65.1965 28.5051 63.5702 23.4533C61.944 18.4015 58.9101 13.9186 54.8249 10.531C50.7397 7.14332 45.7728 4.99155 40.5073 4.32835C35.2418 3.66514 29.8964 4.51802 25.0987 6.78684L22.6287 3.42684C28.1262 0.654883 34.3065 -0.472347 40.4286 0.180349C46.5506 0.833046 52.3544 3.23796 57.1439 7.10664C61.9333 10.9753 65.505 16.1435 67.4307 21.9914C69.3563 27.8392 69.5541 34.1184 68.0003 40.0759C66.4465 46.0333 63.2072 51.4161 58.6707 55.5785C54.1342 59.741 48.4933 62.5064 42.4245 63.5431C36.3556 64.5798 30.1166 63.8438 24.4556 61.4233C18.7946 59.0028 13.9521 55.0007 10.5087 49.8968Z" fill="#F0C830"></path></svg> 