<svg xmlns="http://www.w3.org/2000/svg" xmlns:xlink="http://www.w3.org/1999/xlink" width="500" zoomAndPan="magnify" viewBox="0 0 375 374.999991" height="500" preserveAspectRatio="xMidYMid meet" version="1.0"><path stroke-linecap="butt" transform="matrix(0.75, 0, 0, 0.75, 0.0000045, 112.124993)" fill="none" stroke-linejoin="miter" d="M 39.14583 -0.510407 C 41.406247 -0.510407 43.354164 -0.296865 44.999997 0.130218 C 46.651039 0.552093 48.244789 1.104177 49.776039 1.786468 C 51.041664 2.28126 51.854164 2.53126 52.218747 2.53126 C 52.760414 2.53126 53.276039 2.25001 53.776039 1.68751 C 54.270831 1.12501 54.604164 0.390635 54.781248 -0.510407 L 55.937498 -0.510407 L 57.078123 15.187511 L 55.937498 15.187511 C 55.531248 12.432302 54.520831 10.06251 52.916664 8.083344 C 51.317706 6.098969 49.354164 4.598968 47.031247 3.588552 C 44.70833 2.56251 42.260413 2.052093 39.692705 2.052093 C 34.416663 2.052093 30.187496 3.932302 26.999996 7.703135 C 23.817704 11.468761 22.223954 17.171886 22.223954 24.807303 C 22.223954 29.312512 23.088537 33.088554 24.817704 36.140637 C 26.562496 39.182304 28.843746 41.437513 31.661454 42.901054 C 34.484371 44.364596 37.494788 45.098971 40.703122 45.098971 C 43.994789 45.098971 47.130205 44.265638 50.104164 42.604179 C 53.088539 40.927096 55.416664 38.692721 57.078123 35.895846 L 58.104164 36.572929 C 53.630206 44.197929 47.041664 48.01043 38.338538 48.01043 C 33.822913 48.01043 29.687496 46.963555 25.942704 44.869804 C 22.197912 42.776054 19.229162 39.921887 17.036453 36.307304 C 14.854162 32.69272 13.76562 28.72397 13.76562 24.390636 C 13.76562 19.833344 14.895828 15.645844 17.151037 11.833344 C 19.411454 8.020844 22.479162 5.015635 26.359371 2.807302 C 30.234371 0.59376 34.499996 -0.510407 39.14583 -0.510407 Z M 85.651041 -0.510407 C 89.9375 -0.510407 93.880208 0.572927 97.484375 2.744802 C 101.098959 4.901052 103.963542 7.84376 106.078126 11.567719 C 108.203126 15.291677 109.265626 19.364594 109.265626 23.781261 C 109.265626 28.156262 108.203126 32.203137 106.078126 35.927096 C 103.963542 39.651054 101.098959 42.598971 97.484375 44.770846 C 93.880208 46.927096 89.9375 48.01043 85.651041 48.01043 C 81.364583 48.01043 77.416666 46.927096 73.802082 44.770846 C 70.187499 42.598971 67.333332 39.651054 65.239582 35.927096 C 63.145831 32.203137 62.098956 28.156262 62.098956 23.781261 C 62.098956 19.364594 63.145831 15.291677 65.239582 11.567719 C 67.333332 7.84376 70.187499 4.901052 73.802082 2.744802 C 77.416666 0.572927 81.364583 -0.510407 85.651041 -0.510407 Z M 70.562499 23.781261 C 70.562499 28.109387 71.177082 31.91147 72.411457 35.182304 C 73.656249 38.458346 75.421874 40.984388 77.703124 42.770846 C 79.984374 44.552096 82.630208 45.447929 85.651041 45.447929 C 88.666666 45.447929 91.328125 44.552096 93.630208 42.770846 C 95.9375 40.984388 97.703125 38.458346 98.9375 35.182304 C 100.182292 31.91147 100.807292 28.109387 100.807292 23.781261 C 100.807292 19.541678 100.192709 15.770844 98.96875 12.479177 C 97.760417 9.182302 96.010417 6.619802 93.729167 4.791677 C 91.463542 2.963552 88.744791 2.052093 85.583333 2.052093 C 82.468749 2.052093 79.776041 2.973968 77.520832 4.828135 C 75.270832 6.677094 73.546874 9.25001 72.348957 12.541677 C 71.156249 15.838553 70.562499 19.583344 70.562499 23.781261 Z M 156.250004 34.822929 L 156.250004 6.927094 C 156.250004 4.895843 155.885421 3.536468 155.156254 2.84376 C 154.442712 2.135427 153.114587 1.765635 151.171879 1.71876 L 149.473962 1.71876 L 149.473962 0.494802 L 166.60938 0.494802 L 166.60938 1.71876 L 165.187505 1.71876 C 163.380213 1.71876 162.093755 1.833343 161.322921 2.067718 C 160.562505 2.286468 160.031255 2.817718 159.734379 3.651052 C 159.437504 4.479177 159.286463 5.838552 159.286463 7.734385 L 159.286463 47.546888 L 158.343754 47.546888 L 125.114586 10.114594 L 125.114586 39.151054 C 125.114586 41.671888 125.619794 43.406263 126.635419 44.354179 C 127.645836 45.302096 129.395836 45.776054 131.890628 45.776054 L 131.890628 47.000013 L 115.09896 47.000013 L 115.09896 45.776054 L 115.494793 45.776054 C 117.666668 45.776054 119.312502 45.385429 120.437502 44.604179 C 121.572919 43.812513 122.135419 42.348971 122.135419 40.223971 L 122.135419 7.12501 C 120.958335 5.140635 119.625002 3.744802 118.140627 2.942718 C 116.651043 2.12501 114.822918 1.71876 112.651043 1.71876 L 112.651043 0.494802 L 126.187502 0.494802 Z M 210.333341 10.510427 L 209.046883 10.510427 C 208.723966 7.901052 207.760424 5.958344 206.156258 4.692718 C 204.557299 3.427093 202.135424 2.791677 198.901049 2.791677 L 184.208339 2.791677 L 184.208339 21.135428 L 195.70834 21.135428 C 198.14584 21.135428 199.843757 20.703136 200.817716 19.833344 C 201.786466 18.947928 202.270841 17.562511 202.270841 15.666678 L 202.270841 14.578136 L 203.494799 14.578136 L 203.494799 30.406262 L 202.270841 30.406262 L 202.270841 29.59897 C 202.270841 27.614595 201.796882 26.16147 200.848966 25.234386 C 199.901049 24.312511 198.411465 23.84897 196.385424 23.84897 L 184.208339 23.84897 L 184.208339 40.223971 C 184.208339 42.395846 184.744798 43.864596 185.828131 44.635429 C 186.906256 45.395846 188.598965 45.776054 190.901048 45.776054 L 190.901048 47.000013 L 170.39063 47.000013 L 170.39063 45.776054 L 170.807297 45.776054 C 172.833339 45.776054 174.354172 45.364596 175.364589 44.536471 C 176.380214 43.697929 176.885422 42.239596 176.885422 40.156262 L 176.885422 6.989594 C 176.885422 5.09376 176.369797 3.744802 175.333339 2.942718 C 174.29688 2.12501 172.651047 1.71876 170.39063 1.71876 L 170.39063 0.494802 L 209.854174 0.494802 Z M 236.395843 1.71876 C 234.500009 1.71876 233.052093 1.890635 232.046884 2.229177 C 231.057301 2.56251 230.359384 3.166677 229.947926 4.046885 C 229.552092 4.932302 229.354176 6.208344 229.354176 7.885427 L 229.354176 40.223971 C 229.354176 41.765638 229.604176 42.932304 230.098967 43.729179 C 230.593759 44.510429 231.338551 45.036471 232.328134 45.312513 C 233.322926 45.578138 234.677093 45.734388 236.395843 45.776054 L 236.395843 47.000013 L 214.9948 47.000013 L 214.9948 45.776054 C 216.802092 45.734388 218.187508 45.578138 219.156258 45.312513 C 220.130217 45.036471 220.848967 44.510429 221.322925 43.729179 C 221.796884 42.932304 222.036467 41.744804 222.036467 40.156262 L 222.036467 7.885427 C 222.036467 6.208344 221.817717 4.942718 221.390634 4.083343 C 220.968759 3.223968 220.270842 2.630218 219.291675 2.296885 C 218.322925 1.958343 216.890633 1.765635 214.9948 1.71876 L 214.9948 0.494802 L 236.395843 0.494802 Z M 291.625013 23.713553 C 291.625013 28.364595 290.41668 32.453137 288.005221 35.979179 C 285.588554 39.489596 282.328138 42.208346 278.218762 44.125013 C 274.109387 46.04168 269.619803 47.000013 264.750011 47.000013 L 240.854176 47.000013 L 240.854176 45.776054 C 243.291677 45.734388 245.036468 45.333346 246.09376 44.572929 C 247.161469 43.796888 247.697927 42.328138 247.697927 40.156262 L 247.697927 7.203135 C 247.697927 5.036468 247.130219 3.583343 245.994802 2.84376 C 244.869802 2.09376 243.15626 1.71876 240.854176 1.71876 L 240.854176 0.494802 L 266.78647 0.494802 C 271.97397 0.494802 276.453137 1.604177 280.218762 3.817718 C 283.989596 6.020844 286.828138 8.895844 288.744805 12.442719 C 290.66668 15.989594 291.625013 19.750011 291.625013 23.713553 Z M 255.000011 4.213552 L 255.000011 43.614596 C 257.260428 44.296888 259.697928 44.635429 262.322928 44.635429 C 266.463553 44.635429 270.114595 43.786471 273.281262 42.093763 C 276.44272 40.395846 278.875012 37.994804 280.583346 34.885429 C 282.302096 31.770845 283.161471 28.182303 283.161471 24.13022 C 283.161471 20.062511 282.302096 16.437511 280.583346 13.255219 C 278.875012 10.067719 276.453137 7.578135 273.312512 5.786469 C 270.171887 3.979177 266.572928 3.072927 262.520845 3.072927 C 259.812511 3.072927 257.302094 3.453135 255.000011 4.213552 Z M 334.276058 10.791677 L 333.119808 10.791677 C 332.666683 8.213552 331.828141 6.307302 330.604182 5.072927 C 329.395849 3.828135 327.703141 3.208343 325.531265 3.208343 L 310.838556 3.208343 L 310.838556 21.135428 L 322.885432 21.135428 C 325.057307 21.135428 326.593765 20.59897 327.500016 19.515636 C 328.401057 18.437511 328.875016 16.723969 328.921891 14.380219 L 330.140641 14.380219 L 330.140641 30.75522 L 328.921891 30.75522 C 328.921891 28.406262 328.468766 26.671887 327.562516 25.546886 C 326.661474 24.416678 325.057307 23.84897 322.755224 23.84897 L 310.838556 23.84897 L 310.838556 40.833346 C 310.838556 43.140638 311.744806 44.291679 313.552098 44.291679 L 325.463557 44.291679 C 327.942724 44.291679 330.130224 43.536471 332.026057 42.026054 C 333.921891 40.515637 335.458349 38.317721 336.635433 35.432304 L 338.057308 35.432304 L 334.276058 47.000013 L 296.828138 47.000013 L 296.828138 45.776054 C 299.171889 45.776054 300.875014 45.385429 301.932305 44.604179 C 303.000014 43.812513 303.536472 42.328138 303.536472 40.156262 L 303.536472 6.859385 C 303.536472 5.052093 303.000014 3.744802 301.932305 2.942718 C 300.875014 2.12501 299.171889 1.71876 296.828138 1.71876 L 296.828138 0.494802 L 333.729183 0.494802 Z M 384.015644 34.822929 L 384.015644 6.927094 C 384.015644 4.895843 383.651061 3.536468 382.927102 2.84376 C 382.208352 2.135427 380.880227 1.765635 378.942727 1.71876 L 377.239602 1.71876 L 377.239602 0.494802 L 394.37502 0.494802 L 394.37502 1.71876 L 392.958353 1.71876 C 391.151061 1.71876 389.859395 1.833343 389.088561 2.067718 C 388.328145 2.286468 387.802103 2.817718 387.505228 3.651052 C 387.203144 4.479177 387.057311 5.838552 387.057311 7.734385 L 387.057311 47.546888 L 386.114603 47.546888 L 352.880226 10.114594 L 352.880226 39.151054 C 352.880226 41.671888 353.385434 43.406263 354.401059 44.354179 C 355.416684 45.302096 357.166684 45.776054 359.656268 45.776054 L 359.656268 47.000013 L 342.8646 47.000013 L 342.8646 45.776054 L 343.265642 45.776054 C 345.432308 45.776054 347.078142 45.385429 348.203142 44.604179 C 349.338559 43.812513 349.906267 42.348971 349.906267 40.223971 L 349.906267 7.12501 C 348.729184 5.140635 347.39585 3.744802 345.906267 2.942718 C 344.421892 2.12501 342.588558 1.71876 340.421891 1.71876 L 340.421891 0.494802 L 353.953142 0.494802 Z M 423.479188 -0.510407 C 425.734397 -0.510407 427.687522 -0.296865 429.328147 0.130218 C 430.979189 0.552093 432.572939 1.104177 434.104189 1.786468 C 435.369814 2.28126 436.187523 2.53126 436.552106 2.53126 C 437.088564 2.53126 437.609398 2.25001 438.104189 1.68751 C 438.598981 1.12501 438.937523 0.390635 439.109398 -0.510407 L 440.265648 -0.510407 L 441.406273 15.187511 L 440.265648 15.187511 C 439.859398 12.432302 438.854189 10.06251 437.244814 8.083344 C 435.645856 6.098969 433.687522 4.598968 431.359397 3.588552 C 429.036481 2.56251 426.588564 2.052093 424.020855 2.052093 C 418.744813 2.052093 414.515646 3.932302 411.333354 7.703135 C 408.145854 11.468761 406.557312 17.171886 406.557312 24.807303 C 406.557312 29.312512 407.421896 33.088554 409.151063 36.140637 C 410.890646 39.182304 413.171896 41.437513 415.989605 42.901054 C 418.812522 44.364596 421.822938 45.098971 425.031272 45.098971 C 428.322939 45.098971 431.458356 44.265638 434.432314 42.604179 C 437.421898 40.927096 439.744815 38.692721 441.406273 35.895846 L 442.432315 36.572929 C 437.958356 44.197929 431.369814 48.01043 422.666688 48.01043 C 418.151063 48.01043 414.020855 46.963555 410.276063 44.869804 C 406.526062 42.776054 403.557312 39.921887 401.364604 36.307304 C 399.182312 32.69272 398.09377 28.72397 398.09377 24.390636 C 398.09377 19.833344 399.223979 15.645844 401.484395 11.833344 C 403.739604 8.020844 406.807312 5.015635 410.687521 2.807302 C 414.562521 0.59376 418.828147 -0.510407 423.479188 -0.510407 Z M 483.796901 10.791677 L 482.640651 10.791677 C 482.187526 8.213552 481.348984 6.307302 480.125026 5.072927 C 478.916692 3.828135 477.223984 3.208343 475.052109 3.208343 L 460.364608 3.208343 L 460.364608 21.135428 L 472.411483 21.135428 C 474.57815 21.135428 476.114609 20.59897 477.020859 19.515636 C 477.9219 18.437511 478.395859 16.723969 478.442734 14.380219 L 479.666692 14.380219 L 479.666692 30.75522 L 478.442734 30.75522 C 478.442734 28.406262 477.989609 26.671887 477.088567 25.546886 C 476.182317 24.416678 474.57815 23.84897 472.276067 23.84897 L 460.364608 23.84897 L 460.364608 40.833346 C 460.364608 43.140638 461.265649 44.291679 463.072941 44.291679 L 474.989609 44.291679 C 477.468775 44.291679 479.651067 43.536471 481.546901 42.026054 C 483.442734 40.515637 484.979193 38.317721 486.161484 35.432304 L 487.578151 35.432304 L 483.796901 47.000013 L 446.348982 47.000013 L 446.348982 45.776054 C 448.692732 45.776054 450.395857 45.385429 451.453149 44.604179 C 452.520857 43.812513 453.057315 42.328138 453.057315 40.156262 L 453.057315 6.859385 C 453.057315 5.052093 452.520857 3.744802 451.453149 2.942718 C 450.395857 2.12501 448.692732 1.71876 446.348982 1.71876 L 446.348982 0.494802 L 483.250026 0.494802 Z M 483.796901 10.791677 " stroke="#000000" stroke-width="1.227052" stroke-opacity="1" stroke-miterlimit="4"/><path stroke-linecap="butt" transform="matrix(0.75, 0, 0, 0.75, 0.0000045, 112.124993)" fill="none" stroke-linejoin="miter" d="M 191.406257 68.718764 C 189.375006 68.718764 187.98959 68.880223 187.23959 69.197931 C 186.500006 69.505223 186.130215 70.046889 186.130215 70.817723 C 186.130215 71.718765 186.786465 73.187515 188.098965 75.213556 L 198.526049 90.911474 L 206.906258 77.791682 C 209.296883 74.088556 210.489591 71.718765 210.489591 70.687514 C 210.489591 69.916681 210.093758 69.395848 209.302091 69.130223 C 208.520841 68.859389 207.296883 68.718764 205.630216 68.718764 L 205.630216 67.494806 L 221.333342 67.494806 L 221.333342 68.718764 C 219.072925 68.718764 217.187508 69.364598 215.6823 70.651056 C 214.171883 71.932306 212.354175 74.260431 210.229174 77.64064 L 199.796882 94.036474 L 199.796882 107.223975 C 199.796882 108.812517 200.057299 109.9896 200.578132 110.760434 C 201.104174 111.52085 201.854174 112.036476 202.822924 112.312517 C 203.791674 112.578142 205.151049 112.734392 206.906258 112.776059 L 206.906258 114.000017 L 185.322923 114.000017 L 185.322923 112.776059 L 185.932298 112.776059 C 188.369798 112.776059 190.072923 112.354184 191.041673 111.505225 C 192.010423 110.64585 192.494798 108.994809 192.494798 106.546892 L 192.494798 94.500016 L 178.281256 73.380223 C 177.333339 71.979181 176.541672 70.968764 175.901047 70.338556 C 175.276047 69.708348 174.583339 69.286473 173.838547 69.067723 C 173.098964 68.833348 172.072922 68.718764 170.760422 68.718764 L 170.760422 67.494806 L 191.406257 67.494806 Z M 248.203135 66.489598 C 252.489594 66.489598 256.432303 67.572931 260.036469 69.744806 C 263.645845 71.901056 266.510428 74.843765 268.625012 78.567723 C 270.75522 82.291682 271.81772 86.364599 271.81772 90.781266 C 271.81772 95.156266 270.75522 99.203141 268.625012 102.9271 C 266.510428 106.651058 263.645845 109.598975 260.036469 111.77085 C 256.432303 113.927101 252.489594 115.010434 248.203135 115.010434 C 243.916677 115.010434 239.963551 113.927101 236.354176 111.77085 C 232.739593 109.598975 229.885426 106.651058 227.791676 102.9271 C 225.697925 99.203141 224.65105 95.156266 224.65105 90.781266 C 224.65105 86.364599 225.697925 82.291682 227.791676 78.567723 C 229.885426 74.843765 232.739593 71.901056 236.354176 69.744806 C 239.963551 67.572931 243.916677 66.489598 248.203135 66.489598 Z M 233.114593 90.781266 C 233.114593 95.109391 233.729176 98.911475 234.963551 102.182308 C 236.208343 105.45835 237.973968 107.984392 240.25001 109.77085 C 242.53126 111.5521 245.182302 112.447934 248.203135 112.447934 C 251.21876 112.447934 253.880219 111.5521 256.182302 109.77085 C 258.484386 107.984392 260.255219 105.45835 261.489595 102.182308 C 262.734386 98.911475 263.354178 95.109391 263.354178 90.781266 C 263.354178 86.541682 262.744803 82.770849 261.520845 79.479182 C 260.307303 76.182306 258.562511 73.619806 256.281261 71.791681 C 254.015636 69.963556 251.296886 69.052098 248.135427 69.052098 C 245.015635 69.052098 242.328135 69.973973 240.072926 71.82814 C 237.822926 73.677098 236.098968 76.250015 234.895843 79.541682 C 233.708343 82.838557 233.114593 86.583349 233.114593 90.781266 Z M 297.281264 68.718764 C 295.739597 68.765639 294.526055 68.932306 293.645847 69.229181 C 292.776055 69.515639 292.088555 70.057306 291.578138 70.848973 C 291.083346 71.635431 290.838555 72.79689 290.838555 74.338556 L 290.838555 99.984391 C 290.838555 103.468767 291.895847 106.359392 294.01043 108.661475 C 296.13543 110.953142 299.317722 112.098976 303.562514 112.098976 C 308.572931 112.098976 312.343765 110.859392 314.864598 108.380225 C 317.401057 105.901058 318.666682 102.197933 318.666682 97.276058 L 318.666682 74.20314 C 318.666682 72.166681 318.130223 70.744806 317.062515 69.942723 C 316.005223 69.125014 314.442723 68.718764 312.369806 68.718764 L 311.692723 68.718764 L 311.692723 67.494806 L 328.744807 67.494806 L 328.744807 68.718764 C 327.041682 68.718764 325.67189 68.859389 324.651057 69.130223 C 323.635432 69.395848 322.869807 69.937514 322.348974 70.750014 C 321.833348 71.557306 321.572932 72.750015 321.572932 74.338556 L 321.572932 98.08335 C 321.572932 101.1146 320.895848 103.906267 319.541682 106.463558 C 318.187515 109.010434 316.119806 111.067725 313.343765 112.645851 C 310.567723 114.218767 307.109389 115.010434 302.968764 115.010434 C 298.22918 115.010434 294.411472 114.229184 291.515638 112.677101 C 288.630221 111.125017 286.572929 109.140642 285.348971 106.729183 C 284.140638 104.317725 283.531263 101.70835 283.531263 98.911475 L 283.531263 76.026056 C 283.531263 74.041681 283.348971 72.541681 282.984388 71.526056 C 282.635429 70.515639 281.994804 69.791681 281.067721 69.364598 C 280.145846 68.932306 278.776054 68.718764 276.973971 68.718764 L 276.489595 68.718764 L 276.489595 67.494806 L 297.281264 67.494806 Z M 297.281264 68.718764 " stroke="#000000" stroke-width="1.227052" stroke-opacity="1" stroke-miterlimit="4"/><path stroke-linecap="butt" transform="matrix(0.75, 0, 0, 0.75, 0.0000045, 112.124993)" fill="none" stroke-linejoin="miter" d="M 138.244795 157.713562 C 138.244795 162.364604 137.036461 166.453146 134.625003 169.979188 C 132.213544 173.489605 128.953127 176.208355 124.843752 178.125022 C 120.734377 180.041688 116.244793 181.000022 111.375001 181.000022 L 87.479166 181.000022 L 87.479166 179.776063 C 89.911458 179.734397 91.65625 179.333355 92.713542 178.572938 C 93.786458 177.796896 94.317709 176.328146 94.317709 174.156271 L 94.317709 141.203144 C 94.317709 139.036477 93.75 137.583352 92.614583 136.843769 C 91.494792 136.093769 89.78125 135.718769 87.479166 135.718769 L 87.479166 134.49481 L 113.406251 134.49481 C 118.593752 134.49481 123.072919 135.604185 126.843752 137.817727 C 130.609378 140.020852 133.453128 142.895853 135.369795 146.442728 C 137.286461 149.989603 138.244795 153.75002 138.244795 157.713562 Z M 101.625001 138.213561 L 101.625001 177.614605 C 103.880209 178.296897 106.322918 178.635438 108.942709 178.635438 C 113.088543 178.635438 116.739585 177.78648 119.901044 176.093771 C 123.062502 174.395855 125.500002 171.994813 127.203127 168.885438 C 128.921877 165.770854 129.781253 162.182312 129.781253 158.130229 C 129.781253 154.06252 128.921877 150.43752 127.203127 147.255228 C 125.500002 144.067728 123.072919 141.578144 119.932294 139.786477 C 116.796877 137.979186 113.197918 137.072935 109.140626 137.072935 C 106.432293 137.072935 103.927084 137.453144 101.625001 138.213561 Z M 180.895839 144.791686 L 179.739589 144.791686 C 179.286464 142.213561 178.447922 140.307311 177.229172 139.072936 C 176.015631 137.828144 174.322922 137.208352 172.156255 137.208352 L 157.463546 137.208352 L 157.463546 155.135437 L 169.510422 155.135437 C 171.682297 155.135437 173.218755 154.598978 174.119797 153.515645 C 175.026047 152.43752 175.500006 150.723978 175.541672 148.380228 L 176.765631 148.380228 L 176.765631 164.755229 L 175.541672 164.755229 C 175.541672 162.40627 175.088547 160.671895 174.187505 159.546895 C 173.281255 158.416687 171.682297 157.848979 169.380213 157.848979 L 157.463546 157.848979 L 157.463546 174.833355 C 157.463546 177.140646 158.364588 178.291688 160.17188 178.291688 L 172.088547 178.291688 C 174.567714 178.291688 176.755214 177.53648 178.651047 176.026063 C 180.541673 174.515646 182.078131 172.317729 183.260423 169.432313 L 184.682298 169.432313 L 180.895839 181.000022 L 143.44792 181.000022 L 143.44792 179.776063 C 145.796879 179.776063 147.500004 179.385438 148.557295 178.604188 C 149.625004 177.812521 150.156254 176.328146 150.156254 174.156271 L 150.156254 140.859394 C 150.156254 139.052102 149.625004 137.744811 148.557295 136.942727 C 147.500004 136.125019 145.796879 135.718769 143.44792 135.718769 L 143.44792 134.49481 L 180.348964 134.49481 Z M 203.223966 133.489602 C 204.755216 133.489602 206.078133 133.635435 207.203133 133.93231 C 208.338549 134.218769 209.494799 134.609394 210.677091 135.109394 C 211.260425 135.328144 211.833341 135.531269 212.395841 135.718769 C 212.953133 135.895852 213.46355 135.984394 213.911466 135.984394 C 215.005216 135.984394 215.864592 135.15106 216.489592 133.489602 L 217.781258 133.489602 L 217.781258 148.90627 L 216.489592 148.90627 C 216.270842 146.515644 215.562508 144.338561 214.359383 142.380228 C 213.161466 140.416686 211.666675 138.875019 209.880216 137.750019 C 208.109383 136.614602 206.208341 136.052102 204.182299 136.052102 C 201.963549 136.052102 200.067715 136.71356 198.479174 138.046894 C 196.901049 139.380227 196.11459 140.994811 196.11459 142.890644 C 196.11459 145.104186 197.203132 147.020853 199.369799 148.640645 C 200.901049 149.776061 203.046882 151.130228 205.802091 152.708353 C 208.234383 154.192728 210.260424 155.484395 211.880216 156.572937 C 213.510425 157.65627 215.02605 158.822937 216.427092 160.078145 C 217.692717 161.302104 218.697925 162.708354 219.4323 164.291687 C 220.1823 165.869812 220.5573 167.489604 220.5573 169.151063 C 220.5573 171.453146 219.921883 173.604188 218.656258 175.593771 C 217.390633 177.578146 215.661466 179.145855 213.468758 180.291688 C 211.286466 181.437522 208.890633 182.010438 206.281258 182.010438 C 204.604174 182.010438 203.125007 181.859397 201.833341 181.562522 C 200.546882 181.276063 199.20834 180.885438 197.817715 180.390647 C 196.276049 179.84898 195.125007 179.578147 194.36459 179.578147 C 193.140632 179.578147 192.213548 180.390647 191.588548 182.010438 L 190.36459 182.010438 L 190.36459 166.375021 L 191.588548 166.375021 C 192.348965 170.395854 193.869798 173.578146 196.151049 175.927105 C 198.42709 178.270855 201.375007 179.447938 204.989591 179.447938 C 207.557299 179.447938 209.671883 178.744813 211.333341 177.34898 C 213.010425 175.947938 213.848966 174.187521 213.848966 172.057313 C 213.848966 170.979188 213.645841 169.989604 213.234383 169.083354 C 212.83855 168.182313 212.166675 167.213562 211.218758 166.177104 C 210.359383 165.270854 209.135424 164.291687 207.552091 163.234396 C 205.973966 162.177104 203.875007 160.854187 201.255216 159.270854 C 199.05209 157.911479 197.359382 156.84377 196.182299 156.06252 C 195.015632 155.270853 194.130215 154.578145 193.536465 153.994812 C 191.244798 151.651061 190.098965 148.828145 190.098965 145.536478 C 190.098965 143.276061 190.671882 141.234394 191.817715 139.406269 C 192.963548 137.572936 194.531257 136.130227 196.510424 135.072935 C 198.505215 134.015644 200.744799 133.489602 203.223966 133.489602 Z M 263.406261 144.791686 L 262.250011 144.791686 C 261.796886 142.213561 260.963553 140.307311 259.739594 139.072936 C 258.526053 137.828144 256.833344 137.208352 254.666677 137.208352 L 239.973968 137.208352 L 239.973968 155.135437 L 252.020844 155.135437 C 254.192719 155.135437 255.729177 154.598978 256.630219 153.515645 C 257.536469 152.43752 258.010428 150.723978 258.052094 148.380228 L 259.276053 148.380228 L 259.276053 164.755229 L 258.052094 164.755229 C 258.052094 162.40627 257.598969 160.671895 256.697928 159.546895 C 255.796886 158.416687 254.192719 157.848979 251.890636 157.848979 L 239.973968 157.848979 L 239.973968 174.833355 C 239.973968 177.140646 240.87501 178.291688 242.682302 178.291688 L 254.598969 178.291688 C 257.078136 178.291688 259.265636 177.53648 261.161469 176.026063 C 263.057303 174.515646 264.593761 172.317729 265.770845 169.432313 L 267.19272 169.432313 L 263.406261 181.000022 L 225.958342 181.000022 L 225.958342 179.776063 C 228.307301 179.776063 230.010426 179.385438 231.067718 178.604188 C 232.135426 177.812521 232.666676 176.328146 232.666676 174.156271 L 232.666676 140.859394 C 232.666676 139.052102 232.135426 137.744811 231.067718 136.942727 C 230.010426 136.125019 228.307301 135.718769 225.958342 135.718769 L 225.958342 134.49481 L 262.864595 134.49481 Z M 308.755223 146.609394 C 308.755223 149.453145 307.781264 151.901061 305.843764 153.963562 C 303.906264 156.010437 300.94793 157.53127 296.968764 158.526062 L 307.729181 171.859396 C 309.041681 173.479188 310.145848 174.781271 311.052098 175.760438 C 311.953139 176.729188 313.072931 177.614605 314.406265 178.406272 C 315.739598 179.187522 317.213556 179.645855 318.833348 179.776063 L 318.833348 181.000022 L 306.718764 181.000022 L 289.187513 159.203145 L 284.723971 159.203145 L 284.723971 174.291688 C 284.723971 176.28648 285.229179 177.697938 286.244804 178.53648 C 287.26043 179.364605 288.848971 179.776063 291.020846 179.776063 L 291.286471 179.776063 L 291.286471 181.000022 L 270.97397 181.000022 L 270.97397 179.776063 C 273.145845 179.776063 274.760429 179.395855 275.81772 178.635438 C 276.875012 177.864605 277.406262 176.489605 277.406262 174.50523 L 277.406262 140.859394 C 277.406262 139.052102 276.875012 137.744811 275.81772 136.942727 C 274.760429 136.125019 273.145845 135.718769 270.97397 135.718769 L 270.97397 134.49481 L 292.708347 134.49481 C 297.125014 134.49481 300.901055 135.49481 304.041681 137.489602 C 307.182306 139.468769 308.755223 142.510436 308.755223 146.609394 Z M 284.723971 138.083352 L 284.723971 156.90627 L 286.411471 156.90627 C 290.973971 156.90627 294.427097 156.010437 296.770847 154.229187 C 299.119805 152.442728 300.29168 149.973978 300.29168 146.822936 C 300.29168 144.067728 299.401055 141.723977 297.614597 139.786477 C 295.828138 137.833352 293.312513 136.859394 290.062513 136.859394 C 288.312513 136.859394 286.531263 137.265644 284.723971 138.083352 Z M 341.375016 135.718769 C 339.52085 135.718769 338.213558 135.93231 337.442724 136.364602 C 336.682308 136.791685 336.302099 137.593769 336.302099 138.760436 C 336.302099 139.750019 336.750016 141.354186 337.656266 143.567728 L 348.213559 169.630229 L 358.708351 141.885436 C 358.755226 141.786477 358.885434 141.442727 359.104184 140.859394 C 359.338559 140.276061 359.453143 139.619811 359.453143 138.890644 C 359.453143 137.770852 358.979184 136.968769 358.031268 136.49481 C 357.083351 136.020852 355.953142 135.765644 354.645851 135.718769 L 354.645851 134.49481 L 368.791685 134.49481 L 368.791685 135.718769 C 367.114601 135.80731 365.645851 136.625019 364.380226 138.166686 C 363.11981 139.697936 361.750018 142.421894 360.260434 146.343769 L 346.729183 182.010438 L 345.437517 182.010438 L 329.739599 143.088561 C 328.968766 141.151061 328.250016 139.687519 327.588557 138.692727 C 326.942724 137.703144 326.166682 136.979185 325.260432 136.531269 C 324.35939 136.078144 323.161474 135.80731 321.677098 135.718769 L 321.677098 134.49481 L 341.375016 134.49481 Z M 409.411479 144.791686 L 408.250021 144.791686 C 407.802104 142.213561 406.963562 140.307311 405.739604 139.072936 C 404.526062 137.828144 402.838562 137.208352 400.666687 137.208352 L 385.973978 137.208352 L 385.973978 155.135437 L 398.020853 155.135437 C 400.192729 155.135437 401.729187 154.598978 402.635437 153.515645 C 403.536479 152.43752 404.010437 150.723978 404.057312 148.380228 L 405.276062 148.380228 L 405.276062 164.755229 L 404.057312 164.755229 C 404.057312 162.40627 403.604187 160.671895 402.697937 159.546895 C 401.796895 158.416687 400.192729 157.848979 397.890645 157.848979 L 385.973978 157.848979 L 385.973978 174.833355 C 385.973978 177.140646 386.880228 178.291688 388.68752 178.291688 L 400.598979 178.291688 C 403.078145 178.291688 405.265646 177.53648 407.161479 176.026063 C 409.057313 174.515646 410.593771 172.317729 411.770854 169.432313 L 413.192729 169.432313 L 409.411479 181.000022 L 371.96356 181.000022 L 371.96356 179.776063 C 374.30731 179.776063 376.010435 179.385438 377.067727 178.604188 C 378.135435 177.812521 378.671894 176.328146 378.671894 174.156271 L 378.671894 140.859394 C 378.671894 139.052102 378.135435 137.744811 377.067727 136.942727 C 376.010435 136.125019 374.30731 135.718769 371.96356 135.718769 L 371.96356 134.49481 L 408.864604 134.49481 Z M 409.411479 144.791686 " stroke="#000000" stroke-width="1.227052" stroke-opacity="1" stroke-miterlimit="4"/></svg>