<?xml version="1.0" encoding="UTF-8"?> <svg xmlns="http://www.w3.org/2000/svg" width="53" height="65" viewBox="0 0 53 65" fill="none"><path fill-rule="evenodd" clip-rule="evenodd" d="M38.2729 11.2389C43.2729 11.2389 47.2029 20.6389 46.9829 32.2389C46.7629 43.8389 42.5029 53.2389 37.4729 53.2389C35.0229 53.2389 32.8429 51.0089 31.2729 47.3789C30.6854 46.2301 30.2613 45.005 30.0129 43.7389C32.7814 36.5908 32.8808 28.6843 30.2929 21.4689C30.6813 19.9672 31.2068 18.5044 31.8629 17.0989C33.5729 13.4889 35.8629 11.2689 38.2729 11.2689V11.2389ZM45.0329 58.7189C56.5729 45.9289 55.5929 2.09886 39.6429 2.09886C32.3729 2.09886 26.1629 13.4089 24.9229 28.0989C24.6629 31.0989 24.3129 30.2589 24.2129 28.1489C24.0052 22.05 25.2206 15.9865 27.7629 10.4389C29.4929 6.61886 32.9129 1.07886 37.8729 0.558859C36.4522 0.254625 35.0056 0.0871937 33.5529 0.0588588C26.8129 -0.0911412 16.6929 -0.271142 11.0529 3.87886C7.8829 6.20886 5.0529 10.0889 2.8529 15.9289C-1.4071 27.4989 -1.4071 45.6989 6.3729 55.9289C9.3729 59.9289 12.8529 61.6389 17.7729 62.6089C22.3363 63.5296 26.9696 64.0615 31.6229 64.1989C37.1229 64.1989 41.1429 63.0389 45.0329 58.7389V58.7189ZM38.9729 9.42886C33.4229 9.42886 28.2329 19.6389 27.9729 32.2389C27.7129 44.8389 32.5329 55.0989 38.0829 55.0989C43.6329 55.0989 48.3729 44.8389 48.5829 32.2389C48.7929 19.6389 44.5229 9.42886 38.9729 9.42886Z" fill="#F0C830"></path></svg> 