<?xml version="1.0" encoding="UTF-8"?> <svg xmlns="http://www.w3.org/2000/svg" width="85" height="53" viewBox="0 0 85 53" fill="none"><path fill-rule="evenodd" clip-rule="evenodd" d="M85 8.4808C57.7711 -2.64817 27.3578 -2.83044 0 7.9714L21.3915 44.1761C25.3946 43.0521 29.4787 42.2462 33.6064 41.7658H33.9754L36.8661 46.9095L36.7923 47.1455C36.5921 47.7602 36.5266 48.4116 36.6006 49.0544C36.6745 49.6972 36.8861 50.3161 37.2206 50.868C37.555 51.42 38.0044 51.8918 38.5375 52.2508C39.0706 52.6098 39.6746 52.8473 40.3077 52.9469C40.9408 53.0465 41.5877 53.0057 42.2036 52.8274C42.8196 52.6492 43.3897 52.3377 43.8745 51.9146C44.3593 51.4914 44.7471 50.9669 45.0111 50.3772C45.275 49.7875 45.4088 49.1469 45.403 48.4998C45.4063 47.9114 45.2945 47.3281 45.0742 46.7834C44.8539 46.2387 44.5293 45.7432 44.1191 45.3254C43.7088 44.9076 43.221 44.5756 42.6836 44.3486C42.1461 44.1215 41.5696 44.0038 40.987 44.0022H40.6549L39.1664 41.3185H40.1013C48.0928 41.083 56.0661 42.2173 63.6823 44.6731L85 8.4808ZM61.3575 39.4424C53.4659 37.3238 45.2838 36.5264 37.1368 37.0818H36.78L22.0926 11.2887C21.33 10.0463 19.8292 10.4563 19.0666 10.916C18.0456 11.5372 17.3075 12.6678 17.8365 13.6493L31.6013 37.6409L30.7648 37.7651C28.5762 38.0671 26.4043 38.4818 24.2576 39.0076L23.8517 39.107L6.90087 10.4563L7.56512 10.2202C29.0919 2.61648 56.7692 2.92709 78.0376 11.0029L78.6773 11.2514L61.7757 39.5542L61.3575 39.4424Z" fill="#F0C830"></path></svg> 