<svg xmlns="http://www.w3.org/2000/svg" xmlns:xlink="http://www.w3.org/1999/xlink" width="500" zoomAndPan="magnify" viewBox="0 0 375 374.999991" height="500" preserveAspectRatio="xMidYMid meet" version="1.0"><defs><g/><clipPath id="7d90c4bf95"><path d="M 114 81.246094 L 263 81.246094 L 263 130 L 114 130 Z M 114 81.246094 " clip-rule="nonzero"/></clipPath><clipPath id="ee98a19538"><path d="M 86 191 L 291 191 L 291 211.746094 L 86 211.746094 Z M 86 191 " clip-rule="nonzero"/></clipPath></defs><path fill="#000000" d="M 93.234375 131.234375 C 93.3125 129.558594 93.273438 124.40625 89.640625 120.308594 C 84.875 114.921875 75.769531 113.554688 73.503906 116.523438 C 71.785156 118.785156 74.050781 123.585938 76.277344 126.277344 C 82.019531 133.03125 92.21875 131.429688 93.234375 131.234375 Z M 93.234375 131.234375 " fill-opacity="1" fill-rule="nonzero"/><path fill="#000000" d="M 282.082031 131.234375 C 282.003906 129.558594 282.042969 124.40625 285.675781 120.308594 C 290.445312 114.921875 299.546875 113.554688 301.8125 116.523438 C 303.535156 118.785156 301.265625 123.585938 299.039062 126.277344 C 293.296875 133.03125 283.097656 131.429688 282.082031 131.234375 Z M 282.082031 131.234375 " fill-opacity="1" fill-rule="nonzero"/><g clip-path="url(#7d90c4bf95)"><path fill="#000000" d="M 248.476562 129.324219 L 150.832031 129.324219 C 149.855469 129.324219 148.957031 129.363281 147.117188 129.324219 C 142.429688 129.324219 140.125 129.324219 139.65625 129.089844 C 135.710938 127.253906 138.835938 110.042969 140.476562 102.160156 C 138.058594 106.90625 135.949219 111.785156 134.144531 116.796875 C 131.527344 124.210938 130.902344 127.371094 128.011719 128.777344 C 125.121094 130.183594 120.078125 128.582031 117.5 125.773438 C 113.945312 121.867188 113.398438 115.195312 116.445312 109.535156 L 121.328125 95.054688 C 123.285156 89.203125 129.144531 81.394531 142.78125 81.394531 L 238.632812 81.394531 C 250.078125 81.394531 254.886719 89.316406 256.800781 95.25 L 261.488281 109.769531 C 264.578125 119.332031 257.933594 129.324219 248.476562 129.324219 Z M 248.476562 129.324219 " fill-opacity="1" fill-rule="nonzero"/></g><path fill="#000000" d="M 143.09375 173.269531 C 142.859375 173.660156 133.558594 169.40625 124.183594 162.109375 C 109.609375 150.789062 101.441406 137.207031 101.832031 136.855469 C 102.222656 136.503906 105.464844 141.1875 114.023438 149.460938 C 116.914062 152.234375 121.71875 156.878906 128.324219 162.226562 C 137.273438 169.484375 143.25 172.996094 143.09375 173.269531 Z M 143.09375 173.269531 " fill-opacity="1" fill-rule="nonzero"/><path fill="#000000" d="M 230.894531 173.269531 C 231.128906 173.660156 240.429688 169.40625 249.804688 162.109375 C 264.382812 150.789062 272.546875 137.207031 272.15625 136.855469 C 271.765625 136.503906 268.484375 141.1875 259.925781 149.460938 C 257.074219 152.234375 252.230469 156.878906 245.664062 162.226562 C 236.714844 169.484375 230.699219 172.996094 230.894531 173.269531 Z M 230.894531 173.269531 " fill-opacity="1" fill-rule="nonzero"/><path fill="#000000" d="M 129.300781 175.691406 C 128.675781 178.148438 116.484375 178.148438 105.972656 174.285156 C 102.769531 173.113281 89.015625 168.078125 85.8125 156.332031 C 85.460938 155.082031 84.132812 150.28125 86.007812 148.957031 C 88.625 147.121094 94.914062 154.066406 107.339844 162.34375 C 121.5625 171.75 129.847656 173.582031 129.300781 175.691406 Z M 129.300781 175.691406 " fill-opacity="1" fill-rule="nonzero"/><path fill="#000000" d="M 246.445312 175.691406 C 247.070312 178.148438 259.261719 178.148438 269.773438 174.285156 C 272.976562 173.113281 286.730469 168.078125 289.9375 156.332031 C 290.289062 155.082031 291.617188 150.28125 289.742188 148.957031 C 287.121094 147.121094 280.792969 154.066406 268.40625 162.34375 C 254.183594 171.75 245.898438 173.582031 246.445312 175.691406 Z M 246.445312 175.691406 " fill-opacity="1" fill-rule="nonzero"/><path fill="#000000" d="M 238.398438 182.324219 C 237.183594 181 235.621094 179.320312 233.003906 178.578125 C 231.777344 178.234375 230.523438 178.117188 229.253906 178.226562 L 188.34375 178.539062 L 147.46875 178.226562 C 146.199219 178.117188 144.949219 178.234375 143.71875 178.578125 C 141.101562 179.320312 139.539062 181 138.328125 182.324219 C 135.851562 185.085938 134.210938 188.269531 133.402344 191.886719 C 134.40625 190.074219 135.644531 188.433594 137.117188 186.96875 C 138.601562 185.527344 140.4375 183.730469 143.328125 182.871094 C 144.21875 182.589844 145.132812 182.417969 146.0625 182.363281 L 230.660156 182.363281 C 231.59375 182.417969 232.503906 182.589844 233.394531 182.871094 C 236.285156 183.730469 238.125 185.527344 239.609375 186.96875 C 241.078125 188.433594 242.316406 190.074219 243.320312 191.886719 C 242.734375 189.507812 241.484375 185.683594 238.398438 182.324219 Z M 238.398438 182.324219 " fill-opacity="1" fill-rule="nonzero"/><g clip-path="url(#ee98a19538)"><path fill="#000000" d="M 279.972656 203.246094 C 276.949219 205.089844 273.707031 206.378906 270.242188 207.109375 C 266.390625 207.886719 262.523438 207.992188 258.636719 207.421875 C 255.511719 206.953125 256.136719 206.601562 245.507812 203.441406 C 241.171875 202.152344 239.023438 201.566406 236.246094 201.175781 C 233.851562 200.824219 231.441406 200.667969 229.019531 200.707031 L 147.707031 200.707031 C 145.269531 200.667969 142.847656 200.824219 140.4375 201.175781 C 137.703125 201.566406 135.554688 202.152344 131.214844 203.441406 C 120.585938 206.601562 121.171875 206.953125 118.085938 207.421875 C 114.199219 207.992188 110.332031 207.890625 106.480469 207.109375 C 103.015625 206.378906 99.773438 205.089844 96.753906 203.246094 C 94.550781 201.855469 92.570312 200.203125 90.808594 198.292969 C 89.046875 196.378906 87.5625 194.269531 86.359375 191.964844 C 87.039062 194.355469 88.03125 196.609375 89.339844 198.726562 C 90.648438 200.839844 92.21875 202.738281 94.054688 204.417969 C 99.566406 209.414062 105.542969 210.582031 108.550781 211.167969 C 112.953125 211.601562 117.328125 211.429688 121.679688 210.660156 C 125.207031 209.933594 128.660156 208.945312 132.035156 207.695312 L 133.128906 207.265625 C 133.652344 207.03125 134.183594 206.835938 134.734375 206.679688 C 137.644531 205.769531 140.628906 205.289062 143.679688 205.234375 L 233.042969 205.234375 C 236.09375 205.289062 239.078125 205.769531 241.992188 206.679688 C 242.539062 206.84375 243.070312 207.039062 243.59375 207.265625 L 244.6875 207.695312 C 248.0625 208.945312 251.515625 209.933594 255.042969 210.660156 C 259.394531 211.429688 263.773438 211.601562 268.171875 211.167969 C 271.179688 210.582031 277.160156 209.414062 282.628906 204.417969 C 284.476562 202.742188 286.054688 200.847656 287.371094 198.734375 C 288.683594 196.617188 289.683594 194.359375 290.367188 191.964844 C 289.160156 194.269531 287.675781 196.378906 285.914062 198.292969 C 284.152344 200.203125 282.171875 201.855469 279.972656 203.246094 Z M 279.972656 203.246094 " fill-opacity="1" fill-rule="nonzero"/></g><g fill="#000000" fill-opacity="1"><g transform="translate(4.666339, 260.896975)"><g><path d="M 26.277344 -28.664062 C 28.902344 -28.664062 31.054688 -26.515625 31.054688 -23.886719 L 31.054688 -14.332031 L 7.167969 -14.332031 L 7.167969 -23.886719 C 7.167969 -26.515625 9.316406 -28.664062 11.945312 -28.664062 Z M 35.832031 -23.886719 C 35.6875 -29.191406 31.386719 -33.441406 26.277344 -33.441406 L 11.945312 -33.441406 C 6.59375 -33.441406 2.390625 -28.953125 2.390625 -23.886719 L 2.390625 0 L 7.167969 0 L 7.167969 -9.554688 L 31.054688 -9.554688 L 31.054688 0 L 35.832031 0 Z M 35.832031 -23.886719 "/></g></g></g><g fill="#000000" fill-opacity="1"><g transform="translate(47.088644, 260.896975)"><g><path d="M 31.054688 -9.554688 C 31.054688 -6.925781 28.902344 -4.777344 26.277344 -4.777344 L 11.945312 -4.777344 C 9.316406 -4.777344 7.167969 -6.925781 7.167969 -9.554688 L 7.167969 -33.441406 L 2.390625 -33.441406 L 2.390625 -9.554688 C 2.390625 -4.15625 6.832031 0 11.945312 0 L 26.277344 0 C 31.628906 0 35.832031 -4.492188 35.832031 -9.554688 L 35.832031 -33.441406 L 31.054688 -33.441406 Z M 31.054688 -9.554688 "/></g></g></g><g fill="#000000" fill-opacity="1"><g transform="translate(89.51095, 260.896975)"><g><path d="M 33.441406 -28.664062 L 33.441406 -33.441406 L 0 -33.441406 L 0 -28.664062 L 14.332031 -28.664062 L 14.332031 0 L 19.109375 0 L 19.109375 -28.664062 Z M 33.441406 -28.664062 "/></g></g></g><g fill="#000000" fill-opacity="1"><g transform="translate(127.156072, 260.896975)"><g><path d="M 30.578125 -9.554688 C 30.578125 -6.925781 28.425781 -4.777344 25.796875 -4.777344 L 11.464844 -4.777344 C 8.839844 -4.777344 6.6875 -6.925781 6.6875 -9.554688 L 6.6875 -23.886719 C 6.6875 -26.515625 8.839844 -28.664062 11.464844 -28.664062 L 25.796875 -28.664062 C 28.425781 -28.664062 30.578125 -26.515625 30.578125 -23.886719 Z M 35.355469 -23.886719 C 35.355469 -29.09375 30.863281 -33.441406 25.796875 -33.441406 L 11.464844 -33.441406 C 6.210938 -33.441406 1.910156 -29.144531 1.910156 -23.886719 L 1.910156 -9.554688 C 1.910156 -4.253906 6.164062 0 11.464844 0 L 25.796875 0 C 31.054688 0 35.355469 -4.300781 35.355469 -9.554688 Z M 35.355469 -23.886719 "/></g></g></g><g fill="#000000" fill-opacity="1"><g transform="translate(168.622938, 260.896975)"><g><path d="M 35.355469 -9.554688 C 35.355469 -14.859375 30.816406 -19.109375 25.796875 -19.109375 L 11.464844 -19.109375 C 8.839844 -19.109375 6.6875 -21.261719 6.6875 -23.886719 C 6.6875 -26.515625 8.839844 -28.664062 11.464844 -28.664062 L 25.796875 -28.664062 C 28.425781 -28.664062 30.578125 -26.515625 30.578125 -23.886719 L 35.355469 -23.886719 C 35.210938 -29.191406 30.910156 -33.441406 25.796875 -33.441406 L 11.464844 -33.441406 C 6.117188 -33.441406 1.910156 -28.953125 1.910156 -23.886719 C 1.910156 -18.488281 6.355469 -14.332031 11.464844 -14.332031 L 25.796875 -14.332031 C 28.425781 -14.332031 30.578125 -12.183594 30.578125 -9.554688 C 30.578125 -6.925781 28.425781 -4.777344 25.796875 -4.777344 L 11.464844 -4.777344 C 8.839844 -4.777344 6.6875 -6.925781 6.6875 -9.554688 L 1.910156 -9.554688 C 2.054688 -4.15625 6.257812 0 11.464844 0 L 25.796875 0 C 31.148438 0 35.355469 -4.492188 35.355469 -9.554688 Z M 35.355469 -9.554688 "/></g></g></g><g fill="#000000" fill-opacity="1"><g transform="translate(210.089805, 260.896975)"><g><path d="M 7.167969 -28.664062 L 35.832031 -28.664062 L 35.832031 -33.441406 L 2.390625 -33.441406 L 2.390625 0 L 35.832031 0 L 35.832031 -4.777344 L 7.167969 -4.777344 L 7.167969 -14.332031 L 31.054688 -14.332031 L 31.054688 -19.109375 L 7.167969 -19.109375 Z M 7.167969 -28.664062 "/></g></g></g><g fill="#000000" fill-opacity="1"><g transform="translate(251.556672, 260.896975)"><g><path d="M 31.054688 -19.109375 C 31.054688 -16.484375 28.902344 -14.332031 26.277344 -14.332031 L 7.167969 -14.332031 L 7.167969 -28.664062 L 26.277344 -28.664062 C 28.902344 -28.664062 31.054688 -26.515625 31.054688 -23.886719 Z M 35.832031 0 L 35.832031 -3.390625 L 29.191406 -10.03125 C 33.15625 -11.371094 35.832031 -15.050781 35.832031 -19.109375 L 35.832031 -23.886719 C 35.832031 -29.191406 31.292969 -33.441406 26.277344 -33.441406 L 2.390625 -33.441406 L 2.390625 0 L 7.167969 0 L 7.167969 -9.554688 L 22.882812 -9.554688 L 32.441406 0 Z M 35.832031 0 "/></g></g></g><g fill="#000000" fill-opacity="1"><g transform="translate(293.501271, 260.896975)"><g><path d="M 13.136719 0 L 22.214844 0 L 34.398438 -23.886719 L 34.398438 -33.441406 L 29.621094 -33.441406 L 29.621094 -25.035156 L 19.300781 -4.777344 L 16.050781 -4.777344 L 5.734375 -25.035156 L 5.734375 -33.441406 L 0.957031 -33.441406 L 0.957031 -23.886719 Z M 13.136719 0 "/></g></g></g><g fill="#000000" fill-opacity="1"><g transform="translate(333.057254, 260.896975)"><g><path d="M 7.167969 -28.664062 L 35.832031 -28.664062 L 35.832031 -33.441406 L 2.390625 -33.441406 L 2.390625 0 L 35.832031 0 L 35.832031 -4.777344 L 7.167969 -4.777344 L 7.167969 -14.332031 L 31.054688 -14.332031 L 31.054688 -19.109375 L 7.167969 -19.109375 Z M 7.167969 -28.664062 "/></g></g></g><g fill="#000000" fill-opacity="1"><g transform="translate(34.450501, 294.545)"><g><path d="M 1.144531 -1.019531 C 3.035156 -0.175781 5.601562 0.296875 7.816406 0.296875 C 11.175781 0.296875 14.882812 -0.871094 14.882812 -4.007812 C 14.882812 -6.917969 11.746094 -7.566406 7.742188 -8.1875 C 5.050781 -8.613281 2.789062 -8.933594 2.789062 -10.902344 C 2.789062 -12.96875 5.277344 -13.738281 7.941406 -13.738281 C 10.054688 -13.738281 12.023438 -13.316406 13.765625 -12.519531 C 13.964844 -12.96875 14.113281 -13.441406 14.3125 -13.914062 C 12.394531 -14.757812 10.253906 -15.234375 7.988281 -15.234375 C 4.53125 -15.234375 1.21875 -13.988281 1.21875 -10.851562 C 1.21875 -5.152344 13.316406 -8.039062 13.316406 -3.933594 C 13.316406 -1.917969 10.601562 -1.121094 7.890625 -1.121094 C 5.625 -1.121094 3.433594 -1.59375 1.566406 -2.390625 Z M 1.144531 -1.019531 "/></g></g></g><g fill="#000000" fill-opacity="1"><g transform="translate(52.867963, 294.545)"><g><path d="M 15.183594 0 L 15.183594 -1.46875 L 3.832031 -1.46875 L 3.832031 -6.71875 L 13.964844 -6.71875 L 13.964844 -8.214844 L 3.832031 -8.214844 L 3.832031 -13.464844 L 15.183594 -13.464844 L 15.183594 -14.933594 L 2.265625 -14.933594 L 2.265625 0 Z M 15.183594 0 "/></g></g></g><g fill="#000000" fill-opacity="1"><g transform="translate(71.658741, 294.545)"><g><path d="M 16.300781 0 L 12.296875 -5.25 C 14.660156 -5.5 16.425781 -7.042969 16.425781 -10.082031 C 16.425781 -13.488281 14.164062 -14.933594 11.273438 -14.933594 L 2.238281 -14.933594 L 2.238281 0 L 3.808594 0 L 3.808594 -5.226562 L 10.378906 -5.226562 L 14.386719 0 Z M 11.273438 -13.464844 C 13.242188 -13.464844 14.859375 -12.46875 14.859375 -10.082031 C 14.859375 -7.667969 13.242188 -6.695312 11.273438 -6.695312 L 3.808594 -6.695312 L 3.808594 -13.464844 Z M 11.273438 -13.464844 "/></g></g></g><g fill="#000000" fill-opacity="1"><g transform="translate(91.942795, 294.545)"><g><path d="M 9.957031 0 L 17.894531 -14.933594 L 16.152344 -14.933594 L 9.234375 -1.816406 L 2.265625 -14.933594 L 0.523438 -14.933594 L 8.488281 0 Z M 9.957031 0 "/></g></g></g><g fill="#000000" fill-opacity="1"><g transform="translate(112.550383, 294.545)"><g><path d="M 3.832031 0 L 3.832031 -14.933594 L 2.265625 -14.933594 L 2.265625 0 Z M 3.832031 0 "/></g></g></g><g fill="#000000" fill-opacity="1"><g transform="translate(120.863373, 294.545)"><g><path d="M 15.28125 -2.390625 C 13.539062 -1.617188 11.597656 -1.167969 9.582031 -1.167969 C 5.972656 -1.167969 3.0625 -2.988281 3.0625 -7.46875 C 3.0625 -11.945312 6 -13.765625 9.582031 -13.765625 C 11.597656 -13.765625 13.539062 -13.316406 15.28125 -12.519531 L 15.730469 -13.914062 C 13.863281 -14.757812 11.773438 -15.234375 9.582031 -15.234375 C 5.078125 -15.234375 1.492188 -12.96875 1.492188 -7.46875 C 1.492188 -1.964844 5.078125 0.296875 9.582031 0.296875 C 11.773438 0.296875 13.863281 -0.175781 15.730469 -1.019531 Z M 15.28125 -2.390625 "/></g></g></g><g fill="#000000" fill-opacity="1"><g transform="translate(139.7537, 294.545)"><g><path d="M 15.183594 0 L 15.183594 -1.46875 L 3.832031 -1.46875 L 3.832031 -6.71875 L 13.964844 -6.71875 L 13.964844 -8.214844 L 3.832031 -8.214844 L 3.832031 -13.464844 L 15.183594 -13.464844 L 15.183594 -14.933594 L 2.265625 -14.933594 L 2.265625 0 Z M 15.183594 0 "/></g></g></g><g fill="#000000" fill-opacity="1"><g transform="translate(158.544476, 294.545)"><g/></g></g><g fill="#000000" fill-opacity="1"><g transform="translate(167.703656, 294.545)"><g><path d="M 15.28125 -2.390625 C 13.539062 -1.617188 11.597656 -1.167969 9.582031 -1.167969 C 5.972656 -1.167969 3.0625 -2.988281 3.0625 -7.46875 C 3.0625 -11.945312 6 -13.765625 9.582031 -13.765625 C 11.597656 -13.765625 13.539062 -13.316406 15.28125 -12.519531 L 15.730469 -13.914062 C 13.863281 -14.757812 11.773438 -15.234375 9.582031 -15.234375 C 5.078125 -15.234375 1.492188 -12.96875 1.492188 -7.46875 C 1.492188 -1.964844 5.078125 0.296875 9.582031 0.296875 C 11.773438 0.296875 13.863281 -0.175781 15.730469 -1.019531 Z M 15.28125 -2.390625 "/></g></g></g><g fill="#000000" fill-opacity="1"><g transform="translate(186.59399, 294.545)"><g><path d="M 17.671875 -7.46875 C 17.671875 -12.96875 14.085938 -15.234375 9.582031 -15.234375 C 5.078125 -15.234375 1.492188 -12.96875 1.492188 -7.46875 C 1.492188 -1.964844 5.078125 0.296875 9.582031 0.296875 C 14.085938 0.296875 17.671875 -1.964844 17.671875 -7.46875 Z M 16.105469 -7.46875 C 16.105469 -2.988281 13.191406 -1.167969 9.582031 -1.167969 C 5.972656 -1.167969 3.0625 -2.988281 3.0625 -7.46875 C 3.0625 -11.945312 6 -13.765625 9.582031 -13.765625 C 13.167969 -13.765625 16.105469 -11.945312 16.105469 -7.46875 Z M 16.105469 -7.46875 "/></g></g></g><g fill="#000000" fill-opacity="1"><g transform="translate(207.948226, 294.545)"><g><path d="M 16.800781 0 L 16.800781 -14.933594 L 15.234375 -14.933594 L 15.234375 -2.140625 L 3.832031 -14.933594 L 2.265625 -14.933594 L 2.265625 0 L 3.832031 0 L 3.832031 -12.769531 L 15.234375 0 Z M 16.800781 0 "/></g></g></g><g fill="#000000" fill-opacity="1"><g transform="translate(229.202904, 294.545)"><g><path d="M 8.613281 0 L 8.613281 -13.464844 L 14.957031 -13.464844 L 14.957031 -14.933594 L 0.496094 -14.933594 L 0.496094 -13.464844 L 7.042969 -13.464844 L 7.042969 0 Z M 8.613281 0 "/></g></g></g><g fill="#000000" fill-opacity="1"><g transform="translate(246.873724, 294.545)"><g><path d="M 16.300781 0 L 12.296875 -5.25 C 14.660156 -5.5 16.425781 -7.042969 16.425781 -10.082031 C 16.425781 -13.488281 14.164062 -14.933594 11.273438 -14.933594 L 2.238281 -14.933594 L 2.238281 0 L 3.808594 0 L 3.808594 -5.226562 L 10.378906 -5.226562 L 14.386719 0 Z M 11.273438 -13.464844 C 13.242188 -13.464844 14.859375 -12.46875 14.859375 -10.082031 C 14.859375 -7.667969 13.242188 -6.695312 11.273438 -6.695312 L 3.808594 -6.695312 L 3.808594 -13.464844 Z M 11.273438 -13.464844 "/></g></g></g><g fill="#000000" fill-opacity="1"><g transform="translate(267.157782, 294.545)"><g><path d="M 17.894531 0 L 9.957031 -14.933594 L 8.460938 -14.933594 L 0.496094 0 L 2.265625 0 L 4.179688 -3.609375 L 14.210938 -3.609375 C 14.859375 -2.414062 15.480469 -1.195312 16.152344 0 Z M 13.441406 -5.101562 L 4.953125 -5.101562 L 9.234375 -13.117188 C 10.628906 -10.453125 12.023438 -7.765625 13.441406 -5.101562 Z M 13.441406 -5.101562 "/></g></g></g><g fill="#000000" fill-opacity="1"><g transform="translate(287.765384, 294.545)"><g><path d="M 15.28125 -2.390625 C 13.539062 -1.617188 11.597656 -1.167969 9.582031 -1.167969 C 5.972656 -1.167969 3.0625 -2.988281 3.0625 -7.46875 C 3.0625 -11.945312 6 -13.765625 9.582031 -13.765625 C 11.597656 -13.765625 13.539062 -13.316406 15.28125 -12.519531 L 15.730469 -13.914062 C 13.863281 -14.757812 11.773438 -15.234375 9.582031 -15.234375 C 5.078125 -15.234375 1.492188 -12.96875 1.492188 -7.46875 C 1.492188 -1.964844 5.078125 0.296875 9.582031 0.296875 C 11.773438 0.296875 13.863281 -0.175781 15.730469 -1.019531 Z M 15.28125 -2.390625 "/></g></g></g><g fill="#000000" fill-opacity="1"><g transform="translate(306.655703, 294.545)"><g><path d="M 8.613281 0 L 8.613281 -13.464844 L 14.957031 -13.464844 L 14.957031 -14.933594 L 0.496094 -14.933594 L 0.496094 -13.464844 L 7.042969 -13.464844 L 7.042969 0 Z M 8.613281 0 "/></g></g></g><g fill="#000000" fill-opacity="1"><g transform="translate(324.326538, 294.545)"><g><path d="M 1.144531 -1.019531 C 3.035156 -0.175781 5.601562 0.296875 7.816406 0.296875 C 11.175781 0.296875 14.882812 -0.871094 14.882812 -4.007812 C 14.882812 -6.917969 11.746094 -7.566406 7.742188 -8.1875 C 5.050781 -8.613281 2.789062 -8.933594 2.789062 -10.902344 C 2.789062 -12.96875 5.277344 -13.738281 7.941406 -13.738281 C 10.054688 -13.738281 12.023438 -13.316406 13.765625 -12.519531 C 13.964844 -12.96875 14.113281 -13.441406 14.3125 -13.914062 C 12.394531 -14.757812 10.253906 -15.234375 7.988281 -15.234375 C 4.53125 -15.234375 1.21875 -13.988281 1.21875 -10.851562 C 1.21875 -5.152344 13.316406 -8.039062 13.316406 -3.933594 C 13.316406 -1.917969 10.601562 -1.121094 7.890625 -1.121094 C 5.625 -1.121094 3.433594 -1.59375 1.566406 -2.390625 Z M 1.144531 -1.019531 "/></g></g></g></svg>